<?xml version="1.0" encoding="UTF-8"?>
<svg xmlns="http://www.w3.org/2000/svg" xmlns:xlink="http://www.w3.org/1999/xlink" width="397.5pt" height="305.999988pt" viewBox="0 0 397.5 305.999988" version="1.2">
<defs>
<clipPath id="clip1">
  <path d="M 0 0.191406 L 397 0.191406 L 397 305.808594 L 0 305.808594 Z M 0 0.191406 "/>
</clipPath>
<clipPath id="clip2">
  <path d="M 2 34 L 364 34 L 364 302 L 2 302 Z M 2 34 "/>
</clipPath>
<clipPath id="clip3">
  <path d="M 328.179688 119.65625 C 330.613281 112.867188 331.828125 105.382812 331.65625 97.726562 C 331.308594 63.957031 304.03125 35.929688 270.5 34.539062 C 250.695312 33.667969 232.628906 42.023438 220.292969 55.425781 C 209 67.785156 190.238281 69.699219 176.164062 60.824219 C 157.226562 48.8125 134.644531 42.371094 110.320312 43.417969 C 52.640625 46.203125 5.90625 93.023438 3.128906 150.816406 C 0 215.742188 51.773438 269.355469 115.878906 269.355469 C 134.46875 269.355469 152.191406 264.828125 167.652344 256.820312 C 182.941406 248.8125 201.53125 252.992188 211.78125 266.917969 C 230.195312 291.980469 262.164062 306.429688 296.734375 299.46875 C 326.445312 293.546875 356.152344 263.609375 362.058594 233.671875 C 367.964844 202.859375 357.195312 174.140625 337.214844 155.339844 C 327.484375 146.464844 323.835938 132.363281 328.179688 119.65625 Z M 228.980469 149.597656 C 228.804688 149.769531 228.804688 149.769531 228.632812 149.945312 C 228.632812 149.769531 228.632812 149.597656 228.632812 149.25 C 228.632812 149.421875 228.804688 149.597656 228.980469 149.597656 Z M 228.980469 149.597656 "/>
</clipPath>
<linearGradient id="linear0" gradientUnits="userSpaceOnUse" x1="-1.7" y1="96.306999" x2="210.100004" y2="96.306999" gradientTransform="matrix(1.737325,0,0,1.740656,2.953453,0.248075)">
<stop offset="0" style="stop-color:rgb(100%,24.299622%,53.69873%);stop-opacity:1;"/>
<stop offset="0.015625" style="stop-color:rgb(99.838257%,24.406433%,53.878784%);stop-opacity:1;"/>
<stop offset="0.0234375" style="stop-color:rgb(99.510193%,24.623108%,54.243469%);stop-opacity:1;"/>
<stop offset="0.03125" style="stop-color:rgb(99.177551%,24.842834%,54.612732%);stop-opacity:1;"/>
<stop offset="0.0390625" style="stop-color:rgb(98.84491%,25.061035%,54.983521%);stop-opacity:1;"/>
<stop offset="0.046875" style="stop-color:rgb(98.513794%,25.280762%,55.352783%);stop-opacity:1;"/>
<stop offset="0.0546875" style="stop-color:rgb(98.181152%,25.500488%,55.722046%);stop-opacity:1;"/>
<stop offset="0.0625" style="stop-color:rgb(97.848511%,25.720215%,56.091309%);stop-opacity:1;"/>
<stop offset="0.0703125" style="stop-color:rgb(97.517395%,25.939941%,56.462097%);stop-opacity:1;"/>
<stop offset="0.078125" style="stop-color:rgb(97.184753%,26.159668%,56.83136%);stop-opacity:1;"/>
<stop offset="0.0859375" style="stop-color:rgb(96.852112%,26.379395%,57.200623%);stop-opacity:1;"/>
<stop offset="0.09375" style="stop-color:rgb(96.520996%,26.599121%,57.569885%);stop-opacity:1;"/>
<stop offset="0.101562" style="stop-color:rgb(96.188354%,26.818848%,57.940674%);stop-opacity:1;"/>
<stop offset="0.109375" style="stop-color:rgb(95.855713%,27.037048%,58.309937%);stop-opacity:1;"/>
<stop offset="0.117187" style="stop-color:rgb(95.524597%,27.256775%,58.679199%);stop-opacity:1;"/>
<stop offset="0.125" style="stop-color:rgb(95.191956%,27.476501%,59.049988%);stop-opacity:1;"/>
<stop offset="0.132812" style="stop-color:rgb(94.859314%,27.696228%,59.41925%);stop-opacity:1;"/>
<stop offset="0.140625" style="stop-color:rgb(94.528198%,27.915955%,59.788513%);stop-opacity:1;"/>
<stop offset="0.148437" style="stop-color:rgb(94.195557%,28.135681%,60.157776%);stop-opacity:1;"/>
<stop offset="0.15625" style="stop-color:rgb(93.862915%,28.355408%,60.528564%);stop-opacity:1;"/>
<stop offset="0.164062" style="stop-color:rgb(93.531799%,28.575134%,60.897827%);stop-opacity:1;"/>
<stop offset="0.171875" style="stop-color:rgb(93.199158%,28.794861%,61.26709%);stop-opacity:1;"/>
<stop offset="0.179687" style="stop-color:rgb(92.866516%,29.014587%,61.636353%);stop-opacity:1;"/>
<stop offset="0.1875" style="stop-color:rgb(92.5354%,29.232788%,62.007141%);stop-opacity:1;"/>
<stop offset="0.195312" style="stop-color:rgb(92.202759%,29.452515%,62.376404%);stop-opacity:1;"/>
<stop offset="0.203125" style="stop-color:rgb(91.870117%,29.672241%,62.745667%);stop-opacity:1;"/>
<stop offset="0.210937" style="stop-color:rgb(91.537476%,29.891968%,63.116455%);stop-opacity:1;"/>
<stop offset="0.21875" style="stop-color:rgb(91.20636%,30.111694%,63.485718%);stop-opacity:1;"/>
<stop offset="0.226562" style="stop-color:rgb(90.873718%,30.331421%,63.85498%);stop-opacity:1;"/>
<stop offset="0.234375" style="stop-color:rgb(90.541077%,30.551147%,64.224243%);stop-opacity:1;"/>
<stop offset="0.242187" style="stop-color:rgb(90.209961%,30.770874%,64.595032%);stop-opacity:1;"/>
<stop offset="0.25" style="stop-color:rgb(89.877319%,30.990601%,64.964294%);stop-opacity:1;"/>
<stop offset="0.257812" style="stop-color:rgb(89.544678%,31.210327%,65.333557%);stop-opacity:1;"/>
<stop offset="0.265625" style="stop-color:rgb(89.213562%,31.428528%,65.70282%);stop-opacity:1;"/>
<stop offset="0.273438" style="stop-color:rgb(88.88092%,31.648254%,66.073608%);stop-opacity:1;"/>
<stop offset="0.28125" style="stop-color:rgb(88.548279%,31.867981%,66.442871%);stop-opacity:1;"/>
<stop offset="0.289062" style="stop-color:rgb(88.217163%,32.087708%,66.812134%);stop-opacity:1;"/>
<stop offset="0.296875" style="stop-color:rgb(87.884521%,32.307434%,67.182922%);stop-opacity:1;"/>
<stop offset="0.304687" style="stop-color:rgb(87.55188%,32.527161%,67.552185%);stop-opacity:1;"/>
<stop offset="0.3125" style="stop-color:rgb(87.220764%,32.746887%,67.921448%);stop-opacity:1;"/>
<stop offset="0.320312" style="stop-color:rgb(86.888123%,32.966614%,68.29071%);stop-opacity:1;"/>
<stop offset="0.328125" style="stop-color:rgb(86.555481%,33.18634%,68.661499%);stop-opacity:1;"/>
<stop offset="0.335937" style="stop-color:rgb(86.224365%,33.406067%,69.030762%);stop-opacity:1;"/>
<stop offset="0.34375" style="stop-color:rgb(85.891724%,33.624268%,69.400024%);stop-opacity:1;"/>
<stop offset="0.351562" style="stop-color:rgb(85.559082%,33.843994%,69.769287%);stop-opacity:1;"/>
<stop offset="0.359375" style="stop-color:rgb(85.227966%,34.063721%,70.140076%);stop-opacity:1;"/>
<stop offset="0.367187" style="stop-color:rgb(84.895325%,34.283447%,70.509338%);stop-opacity:1;"/>
<stop offset="0.375" style="stop-color:rgb(84.562683%,34.503174%,70.878601%);stop-opacity:1;"/>
<stop offset="0.382812" style="stop-color:rgb(84.231567%,34.7229%,71.24939%);stop-opacity:1;"/>
<stop offset="0.390625" style="stop-color:rgb(83.898926%,34.942627%,71.618652%);stop-opacity:1;"/>
<stop offset="0.398437" style="stop-color:rgb(83.566284%,35.162354%,71.987915%);stop-opacity:1;"/>
<stop offset="0.40625" style="stop-color:rgb(83.233643%,35.38208%,72.357178%);stop-opacity:1;"/>
<stop offset="0.414062" style="stop-color:rgb(82.902527%,35.601807%,72.727966%);stop-opacity:1;"/>
<stop offset="0.421875" style="stop-color:rgb(82.569885%,35.820007%,73.097229%);stop-opacity:1;"/>
<stop offset="0.429687" style="stop-color:rgb(82.237244%,36.039734%,73.466492%);stop-opacity:1;"/>
<stop offset="0.4375" style="stop-color:rgb(81.906128%,36.25946%,73.835754%);stop-opacity:1;"/>
<stop offset="0.445312" style="stop-color:rgb(81.573486%,36.479187%,74.206543%);stop-opacity:1;"/>
<stop offset="0.453125" style="stop-color:rgb(81.240845%,36.698914%,74.575806%);stop-opacity:1;"/>
<stop offset="0.460937" style="stop-color:rgb(80.909729%,36.91864%,74.945068%);stop-opacity:1;"/>
<stop offset="0.46875" style="stop-color:rgb(80.577087%,37.138367%,75.315857%);stop-opacity:1;"/>
<stop offset="0.476562" style="stop-color:rgb(80.244446%,37.358093%,75.68512%);stop-opacity:1;"/>
<stop offset="0.484375" style="stop-color:rgb(79.91333%,37.57782%,76.054382%);stop-opacity:1;"/>
<stop offset="0.492187" style="stop-color:rgb(79.580688%,37.797546%,76.423645%);stop-opacity:1;"/>
<stop offset="0.5" style="stop-color:rgb(79.248047%,38.015747%,76.794434%);stop-opacity:1;"/>
<stop offset="0.507812" style="stop-color:rgb(78.916931%,38.235474%,77.163696%);stop-opacity:1;"/>
<stop offset="0.515625" style="stop-color:rgb(78.58429%,38.4552%,77.532959%);stop-opacity:1;"/>
<stop offset="0.523437" style="stop-color:rgb(78.251648%,38.674927%,77.902222%);stop-opacity:1;"/>
<stop offset="0.53125" style="stop-color:rgb(77.920532%,38.894653%,78.27301%);stop-opacity:1;"/>
<stop offset="0.539062" style="stop-color:rgb(77.587891%,39.11438%,78.642273%);stop-opacity:1;"/>
<stop offset="0.546875" style="stop-color:rgb(77.255249%,39.334106%,79.011536%);stop-opacity:1;"/>
<stop offset="0.554687" style="stop-color:rgb(76.924133%,39.553833%,79.382324%);stop-opacity:1;"/>
<stop offset="0.5625" style="stop-color:rgb(76.591492%,39.77356%,79.751587%);stop-opacity:1;"/>
<stop offset="0.570312" style="stop-color:rgb(76.25885%,39.993286%,80.12085%);stop-opacity:1;"/>
<stop offset="0.578125" style="stop-color:rgb(75.927734%,40.211487%,80.490112%);stop-opacity:1;"/>
<stop offset="0.585937" style="stop-color:rgb(75.595093%,40.431213%,80.860901%);stop-opacity:1;"/>
<stop offset="0.59375" style="stop-color:rgb(75.262451%,40.65094%,81.230164%);stop-opacity:1;"/>
<stop offset="0.601562" style="stop-color:rgb(74.92981%,40.870667%,81.599426%);stop-opacity:1;"/>
<stop offset="0.609375" style="stop-color:rgb(74.598694%,41.090393%,81.968689%);stop-opacity:1;"/>
<stop offset="0.617187" style="stop-color:rgb(74.266052%,41.31012%,82.339478%);stop-opacity:1;"/>
<stop offset="0.625" style="stop-color:rgb(73.933411%,41.529846%,82.70874%);stop-opacity:1;"/>
<stop offset="0.632812" style="stop-color:rgb(73.602295%,41.749573%,83.078003%);stop-opacity:1;"/>
<stop offset="0.640625" style="stop-color:rgb(73.269653%,41.969299%,83.448792%);stop-opacity:1;"/>
<stop offset="0.648437" style="stop-color:rgb(72.937012%,42.189026%,83.818054%);stop-opacity:1;"/>
<stop offset="0.65625" style="stop-color:rgb(72.605896%,42.407227%,84.187317%);stop-opacity:1;"/>
<stop offset="0.664062" style="stop-color:rgb(72.273254%,42.626953%,84.55658%);stop-opacity:1;"/>
<stop offset="0.671875" style="stop-color:rgb(71.940613%,42.84668%,84.927368%);stop-opacity:1;"/>
<stop offset="0.679688" style="stop-color:rgb(71.609497%,43.066406%,85.296631%);stop-opacity:1;"/>
<stop offset="0.6875" style="stop-color:rgb(71.276855%,43.286133%,85.665894%);stop-opacity:1;"/>
<stop offset="0.695312" style="stop-color:rgb(70.944214%,43.505859%,86.035156%);stop-opacity:1;"/>
<stop offset="0.703125" style="stop-color:rgb(70.613098%,43.725586%,86.405945%);stop-opacity:1;"/>
<stop offset="0.710938" style="stop-color:rgb(70.280457%,43.945312%,86.775208%);stop-opacity:1;"/>
<stop offset="0.71875" style="stop-color:rgb(69.947815%,44.165039%,87.14447%);stop-opacity:1;"/>
<stop offset="0.726562" style="stop-color:rgb(69.616699%,44.384766%,87.515259%);stop-opacity:1;"/>
<stop offset="0.734375" style="stop-color:rgb(69.284058%,44.602966%,87.884521%);stop-opacity:1;"/>
<stop offset="0.742188" style="stop-color:rgb(68.951416%,44.822693%,88.253784%);stop-opacity:1;"/>
<stop offset="0.75" style="stop-color:rgb(68.6203%,45.042419%,88.623047%);stop-opacity:1;"/>
<stop offset="0.757812" style="stop-color:rgb(68.287659%,45.262146%,88.993835%);stop-opacity:1;"/>
<stop offset="0.765625" style="stop-color:rgb(67.955017%,45.481873%,89.363098%);stop-opacity:1;"/>
<stop offset="0.773437" style="stop-color:rgb(67.623901%,45.701599%,89.732361%);stop-opacity:1;"/>
<stop offset="0.78125" style="stop-color:rgb(67.29126%,45.921326%,90.103149%);stop-opacity:1;"/>
<stop offset="0.789062" style="stop-color:rgb(66.958618%,46.141052%,90.472412%);stop-opacity:1;"/>
<stop offset="0.796875" style="stop-color:rgb(66.625977%,46.360779%,90.841675%);stop-opacity:1;"/>
<stop offset="0.804687" style="stop-color:rgb(66.294861%,46.580505%,91.210938%);stop-opacity:1;"/>
<stop offset="0.8125" style="stop-color:rgb(65.962219%,46.798706%,91.581726%);stop-opacity:1;"/>
<stop offset="0.820312" style="stop-color:rgb(65.629578%,47.018433%,91.950989%);stop-opacity:1;"/>
<stop offset="0.828125" style="stop-color:rgb(65.298462%,47.238159%,92.320251%);stop-opacity:1;"/>
<stop offset="0.835937" style="stop-color:rgb(64.96582%,47.457886%,92.689514%);stop-opacity:1;"/>
<stop offset="0.84375" style="stop-color:rgb(64.633179%,47.677612%,93.060303%);stop-opacity:1;"/>
<stop offset="0.851562" style="stop-color:rgb(64.302063%,47.897339%,93.429565%);stop-opacity:1;"/>
<stop offset="0.859375" style="stop-color:rgb(63.969421%,48.117065%,93.798828%);stop-opacity:1;"/>
<stop offset="0.867187" style="stop-color:rgb(63.63678%,48.336792%,94.169617%);stop-opacity:1;"/>
<stop offset="0.875" style="stop-color:rgb(63.305664%,48.556519%,94.538879%);stop-opacity:1;"/>
<stop offset="0.882812" style="stop-color:rgb(62.973022%,48.774719%,94.908142%);stop-opacity:1;"/>
<stop offset="0.890625" style="stop-color:rgb(62.640381%,48.994446%,95.277405%);stop-opacity:1;"/>
<stop offset="0.898437" style="stop-color:rgb(62.309265%,49.214172%,95.648193%);stop-opacity:1;"/>
<stop offset="0.90625" style="stop-color:rgb(61.976624%,49.433899%,96.017456%);stop-opacity:1;"/>
<stop offset="0.914062" style="stop-color:rgb(61.643982%,49.653625%,96.386719%);stop-opacity:1;"/>
<stop offset="0.921875" style="stop-color:rgb(61.312866%,49.873352%,96.755981%);stop-opacity:1;"/>
<stop offset="0.929688" style="stop-color:rgb(60.980225%,50.093079%,97.12677%);stop-opacity:1;"/>
<stop offset="0.9375" style="stop-color:rgb(60.647583%,50.312805%,97.496033%);stop-opacity:1;"/>
<stop offset="0.945312" style="stop-color:rgb(60.316467%,50.532532%,97.865295%);stop-opacity:1;"/>
<stop offset="0.953125" style="stop-color:rgb(59.983826%,50.752258%,98.236084%);stop-opacity:1;"/>
<stop offset="0.960938" style="stop-color:rgb(59.651184%,50.970459%,98.605347%);stop-opacity:1;"/>
<stop offset="0.96875" style="stop-color:rgb(59.320068%,51.190186%,98.974609%);stop-opacity:1;"/>
<stop offset="0.976562" style="stop-color:rgb(58.987427%,51.409912%,99.343872%);stop-opacity:1;"/>
<stop offset="0.984375" style="stop-color:rgb(58.654785%,51.629639%,99.714661%);stop-opacity:1;"/>
<stop offset="1" style="stop-color:rgb(58.444214%,51.768494%,99.949646%);stop-opacity:1;"/>
</linearGradient>
<clipPath id="clip4">
  <path d="M 170 0.191406 L 204 0.191406 L 204 34 L 170 34 Z M 170 0.191406 "/>
</clipPath>
<clipPath id="clip5">
  <path d="M 203.613281 16.785156 C 203.613281 17.324219 203.589844 17.867188 203.535156 18.40625 C 203.480469 18.945312 203.402344 19.480469 203.296875 20.011719 C 203.191406 20.542969 203.0625 21.066406 202.902344 21.585938 C 202.746094 22.101562 202.566406 22.613281 202.359375 23.113281 C 202.152344 23.613281 201.921875 24.101562 201.664062 24.578125 C 201.410156 25.058594 201.132812 25.519531 200.832031 25.972656 C 200.53125 26.421875 200.210938 26.855469 199.867188 27.273438 C 199.523438 27.695312 199.164062 28.09375 198.78125 28.476562 C 198.398438 28.859375 198 29.222656 197.582031 29.566406 C 197.164062 29.910156 196.730469 30.234375 196.28125 30.535156 C 195.828125 30.835938 195.367188 31.113281 194.890625 31.367188 C 194.414062 31.625 193.925781 31.855469 193.425781 32.0625 C 192.925781 32.269531 192.417969 32.453125 191.902344 32.609375 C 191.382812 32.765625 190.859375 32.898438 190.328125 33.003906 C 189.800781 33.109375 189.265625 33.1875 188.726562 33.242188 C 188.191406 33.292969 187.652344 33.320312 187.109375 33.320312 C 186.570312 33.320312 186.03125 33.292969 185.492188 33.242188 C 184.953125 33.1875 184.421875 33.109375 183.890625 33.003906 C 183.359375 32.898438 182.835938 32.765625 182.320312 32.609375 C 181.800781 32.453125 181.292969 32.269531 180.792969 32.0625 C 180.292969 31.855469 179.804688 31.625 179.328125 31.367188 C 178.851562 31.113281 178.390625 30.835938 177.941406 30.535156 C 177.492188 30.234375 177.058594 29.910156 176.640625 29.566406 C 176.222656 29.222656 175.820312 28.859375 175.4375 28.476562 C 175.058594 28.09375 174.695312 27.695312 174.351562 27.273438 C 174.007812 26.855469 173.6875 26.421875 173.386719 25.972656 C 173.085938 25.519531 172.808594 25.058594 172.554688 24.578125 C 172.300781 24.101562 172.070312 23.613281 171.863281 23.113281 C 171.65625 22.613281 171.472656 22.101562 171.316406 21.585938 C 171.160156 21.066406 171.027344 20.542969 170.921875 20.011719 C 170.816406 19.480469 170.738281 18.945312 170.683594 18.40625 C 170.632812 17.867188 170.605469 17.324219 170.605469 16.785156 C 170.605469 16.242188 170.632812 15.703125 170.683594 15.164062 C 170.738281 14.625 170.816406 14.089844 170.921875 13.558594 C 171.027344 13.027344 171.160156 12.503906 171.316406 11.984375 C 171.472656 11.464844 171.65625 10.957031 171.863281 10.457031 C 172.070312 9.957031 172.300781 9.46875 172.554688 8.988281 C 172.808594 8.511719 173.085938 8.046875 173.386719 7.597656 C 173.6875 7.148438 174.007812 6.710938 174.351562 6.292969 C 174.695312 5.875 175.058594 5.472656 175.4375 5.089844 C 175.820312 4.707031 176.222656 4.34375 176.640625 4 C 177.058594 3.65625 177.492188 3.335938 177.941406 3.035156 C 178.390625 2.734375 178.851562 2.457031 179.328125 2.199219 C 179.804688 1.945312 180.292969 1.714844 180.792969 1.507812 C 181.292969 1.300781 181.800781 1.117188 182.320312 0.960938 C 182.835938 0.804688 183.359375 0.671875 183.890625 0.566406 C 184.421875 0.460938 184.953125 0.378906 185.492188 0.328125 C 186.03125 0.273438 186.570312 0.25 187.109375 0.25 C 187.652344 0.25 188.191406 0.273438 188.726562 0.328125 C 189.265625 0.378906 189.800781 0.460938 190.328125 0.566406 C 190.859375 0.671875 191.382812 0.804688 191.902344 0.960938 C 192.417969 1.117188 192.925781 1.300781 193.425781 1.507812 C 193.925781 1.714844 194.414062 1.945312 194.890625 2.199219 C 195.367188 2.457031 195.828125 2.734375 196.28125 3.035156 C 196.730469 3.335938 197.164062 3.65625 197.582031 4 C 198 4.34375 198.398438 4.707031 198.78125 5.089844 C 199.164062 5.472656 199.523438 5.875 199.867188 6.292969 C 200.210938 6.710938 200.53125 7.148438 200.832031 7.597656 C 201.132812 8.046875 201.410156 8.511719 201.664062 8.988281 C 201.921875 9.46875 202.152344 9.957031 202.359375 10.457031 C 202.566406 10.957031 202.746094 11.464844 202.902344 11.984375 C 203.0625 12.503906 203.191406 13.027344 203.296875 13.558594 C 203.402344 14.089844 203.480469 14.625 203.535156 15.164062 C 203.589844 15.703125 203.613281 16.242188 203.613281 16.785156 Z M 203.613281 16.785156 "/>
</clipPath>
<linearGradient id="linear1" gradientUnits="userSpaceOnUse" x1="96.499997" y1="96.306999" x2="115.500005" y2="96.306999" gradientTransform="matrix(1.737325,0,0,1.740656,2.953453,0.248075)">
<stop offset="0" style="stop-color:rgb(80.628967%,37.104797%,75.259399%);stop-opacity:1;"/>
<stop offset="0.0625" style="stop-color:rgb(80.508423%,37.182617%,75.390625%);stop-opacity:1;"/>
<stop offset="0.125" style="stop-color:rgb(80.270386%,37.339783%,75.656128%);stop-opacity:1;"/>
<stop offset="0.1875" style="stop-color:rgb(80.032349%,37.498474%,75.921631%);stop-opacity:1;"/>
<stop offset="0.25" style="stop-color:rgb(79.794312%,37.65564%,76.187134%);stop-opacity:1;"/>
<stop offset="0.3125" style="stop-color:rgb(79.554749%,37.812805%,76.452637%);stop-opacity:1;"/>
<stop offset="0.375" style="stop-color:rgb(79.316711%,37.969971%,76.71814%);stop-opacity:1;"/>
<stop offset="0.4375" style="stop-color:rgb(79.078674%,38.128662%,76.983643%);stop-opacity:1;"/>
<stop offset="0.5" style="stop-color:rgb(78.840637%,38.285828%,77.24762%);stop-opacity:1;"/>
<stop offset="0.5625" style="stop-color:rgb(78.6026%,38.442993%,77.513123%);stop-opacity:1;"/>
<stop offset="0.625" style="stop-color:rgb(78.363037%,38.601685%,77.778625%);stop-opacity:1;"/>
<stop offset="0.6875" style="stop-color:rgb(78.125%,38.75885%,78.044128%);stop-opacity:1;"/>
<stop offset="0.75" style="stop-color:rgb(77.886963%,38.916016%,78.309631%);stop-opacity:1;"/>
<stop offset="0.8125" style="stop-color:rgb(77.648926%,39.073181%,78.575134%);stop-opacity:1;"/>
<stop offset="0.875" style="stop-color:rgb(77.410889%,39.231873%,78.840637%);stop-opacity:1;"/>
<stop offset="0.9375" style="stop-color:rgb(77.171326%,39.389038%,79.10614%);stop-opacity:1;"/>
<stop offset="1" style="stop-color:rgb(76.933289%,39.546204%,79.370117%);stop-opacity:1;"/>
</linearGradient>
<clipPath id="clip6">
  <path d="M 170 272 L 192 272 L 192 294 L 170 294 Z M 170 272 "/>
</clipPath>
<clipPath id="clip7">
  <path d="M 191.972656 282.929688 C 191.972656 283.628906 191.90625 284.316406 191.769531 285.003906 C 191.636719 285.6875 191.433594 286.351562 191.167969 286.992188 C 190.902344 287.636719 190.574219 288.25 190.1875 288.828125 C 189.800781 289.410156 189.363281 289.945312 188.871094 290.4375 C 188.378906 290.933594 187.84375 291.371094 187.265625 291.757812 C 186.6875 292.148438 186.074219 292.472656 185.433594 292.742188 C 184.789062 293.007812 184.125 293.207031 183.445312 293.34375 C 182.761719 293.480469 182.074219 293.546875 181.375 293.546875 C 180.679688 293.546875 179.992188 293.480469 179.308594 293.34375 C 178.625 293.207031 177.964844 293.007812 177.320312 292.742188 C 176.679688 292.472656 176.066406 292.148438 175.488281 291.757812 C 174.910156 291.371094 174.375 290.933594 173.882812 290.4375 C 173.390625 289.945312 172.953125 289.410156 172.566406 288.828125 C 172.179688 288.25 171.851562 287.636719 171.585938 286.992188 C 171.320312 286.351562 171.117188 285.6875 170.984375 285.003906 C 170.847656 284.316406 170.777344 283.628906 170.777344 282.929688 C 170.777344 282.234375 170.847656 281.542969 170.984375 280.859375 C 171.117188 280.175781 171.320312 279.511719 171.585938 278.867188 C 171.851562 278.222656 172.179688 277.609375 172.566406 277.03125 C 172.953125 276.453125 173.390625 275.914062 173.882812 275.421875 C 174.375 274.929688 174.910156 274.488281 175.488281 274.101562 C 176.066406 273.714844 176.679688 273.386719 177.320312 273.121094 C 177.964844 272.855469 178.625 272.652344 179.308594 272.515625 C 179.992188 272.378906 180.679688 272.3125 181.375 272.3125 C 182.074219 272.3125 182.761719 272.378906 183.445312 272.515625 C 184.125 272.652344 184.789062 272.855469 185.433594 273.121094 C 186.074219 273.386719 186.6875 273.714844 187.265625 274.101562 C 187.84375 274.488281 188.378906 274.929688 188.871094 275.421875 C 189.363281 275.914062 189.800781 276.453125 190.1875 277.03125 C 190.574219 277.609375 190.902344 278.222656 191.167969 278.867188 C 191.433594 279.511719 191.636719 280.175781 191.769531 280.859375 C 191.90625 281.542969 191.972656 282.234375 191.972656 282.929688 Z M 191.972656 282.929688 "/>
</clipPath>
<linearGradient id="linear2" gradientUnits="userSpaceOnUse" x1="96.599988" y1="96.306999" x2="108.799992" y2="96.306999" gradientTransform="matrix(1.737325,0,0,1.740656,2.953453,0.248075)">
<stop offset="0" style="stop-color:rgb(80.607605%,37.11853%,75.280762%);stop-opacity:1;"/>
<stop offset="0.125" style="stop-color:rgb(80.455017%,37.219238%,75.450134%);stop-opacity:1;"/>
<stop offset="0.25" style="stop-color:rgb(80.148315%,37.420654%,75.791931%);stop-opacity:1;"/>
<stop offset="0.375" style="stop-color:rgb(79.84314%,37.623596%,76.132202%);stop-opacity:1;"/>
<stop offset="0.5" style="stop-color:rgb(79.536438%,37.825012%,76.472473%);stop-opacity:1;"/>
<stop offset="0.625" style="stop-color:rgb(79.229736%,38.027954%,76.81427%);stop-opacity:1;"/>
<stop offset="0.75" style="stop-color:rgb(78.924561%,38.230896%,77.154541%);stop-opacity:1;"/>
<stop offset="0.875" style="stop-color:rgb(78.617859%,38.432312%,77.494812%);stop-opacity:1;"/>
<stop offset="1" style="stop-color:rgb(78.311157%,38.635254%,77.835083%);stop-opacity:1;"/>
</linearGradient>
<clipPath id="clip8">
  <path d="M 341 94 L 397 94 L 397 150 L 341 150 Z M 341 94 "/>
</clipPath>
<clipPath id="clip9">
  <path d="M 397.5 122.09375 C 397.5 123.007812 397.457031 123.917969 397.367188 124.824219 C 397.277344 125.730469 397.144531 126.632812 396.964844 127.527344 C 396.789062 128.421875 396.566406 129.304688 396.304688 130.179688 C 396.039062 131.050781 395.730469 131.910156 395.382812 132.75 C 395.035156 133.59375 394.648438 134.417969 394.21875 135.222656 C 393.789062 136.027344 393.320312 136.808594 392.816406 137.566406 C 392.308594 138.324219 391.769531 139.058594 391.191406 139.761719 C 390.613281 140.46875 390.003906 141.140625 389.359375 141.789062 C 388.714844 142.433594 388.039062 143.042969 387.335938 143.621094 C 386.632812 144.203125 385.902344 144.742188 385.144531 145.25 C 384.390625 145.757812 383.609375 146.226562 382.804688 146.65625 C 382.003906 147.085938 381.179688 147.476562 380.339844 147.824219 C 379.5 148.171875 378.644531 148.480469 377.773438 148.746094 C 376.902344 149.011719 376.019531 149.230469 375.125 149.410156 C 374.234375 149.585938 373.332031 149.722656 372.425781 149.808594 C 371.519531 149.898438 370.613281 149.945312 369.703125 149.945312 C 368.792969 149.945312 367.882812 149.898438 366.976562 149.808594 C 366.070312 149.722656 365.171875 149.585938 364.28125 149.410156 C 363.386719 149.230469 362.503906 149.011719 361.632812 148.746094 C 360.761719 148.480469 359.90625 148.171875 359.066406 147.824219 C 358.222656 147.476562 357.402344 147.085938 356.597656 146.65625 C 355.796875 146.226562 355.015625 145.757812 354.257812 145.25 C 353.503906 144.742188 352.773438 144.203125 352.070312 143.621094 C 351.363281 143.042969 350.691406 142.433594 350.046875 141.789062 C 349.402344 141.140625 348.792969 140.46875 348.214844 139.761719 C 347.636719 139.058594 347.097656 138.324219 346.589844 137.566406 C 346.085938 136.808594 345.617188 136.027344 345.1875 135.222656 C 344.757812 134.417969 344.371094 133.59375 344.019531 132.75 C 343.671875 131.910156 343.367188 131.050781 343.101562 130.179688 C 342.839844 129.304688 342.617188 128.421875 342.441406 127.527344 C 342.261719 126.632812 342.128906 125.730469 342.039062 124.824219 C 341.949219 123.917969 341.90625 123.007812 341.90625 122.09375 C 341.90625 121.183594 341.949219 120.273438 342.039062 119.363281 C 342.128906 118.457031 342.261719 117.554688 342.441406 116.660156 C 342.617188 115.765625 342.839844 114.882812 343.101562 114.007812 C 343.367188 113.136719 343.671875 112.277344 344.019531 111.4375 C 344.371094 110.59375 344.757812 109.769531 345.1875 108.964844 C 345.617188 108.160156 346.085938 107.378906 346.589844 106.621094 C 347.097656 105.863281 347.636719 105.132812 348.214844 104.425781 C 348.792969 103.722656 349.402344 103.046875 350.046875 102.402344 C 350.691406 101.753906 351.363281 101.144531 352.070312 100.566406 C 352.773438 99.988281 353.503906 99.445312 354.257812 98.9375 C 355.015625 98.429688 355.796875 97.960938 356.597656 97.53125 C 357.402344 97.101562 358.222656 96.710938 359.066406 96.363281 C 359.90625 96.015625 360.761719 95.707031 361.632812 95.441406 C 362.503906 95.179688 363.386719 94.957031 364.28125 94.777344 C 365.171875 94.601562 366.070312 94.46875 366.976562 94.378906 C 367.882812 94.289062 368.792969 94.242188 369.703125 94.242188 C 370.613281 94.242188 371.519531 94.289062 372.425781 94.378906 C 373.332031 94.46875 374.234375 94.601562 375.125 94.777344 C 376.019531 94.957031 376.902344 95.179688 377.773438 95.441406 C 378.644531 95.707031 379.5 96.015625 380.339844 96.363281 C 381.179688 96.710938 382.003906 97.101562 382.804688 97.53125 C 383.609375 97.960938 384.390625 98.429688 385.144531 98.9375 C 385.902344 99.445312 386.632812 99.988281 387.335938 100.566406 C 388.039062 101.144531 388.714844 101.753906 389.359375 102.402344 C 390.003906 103.046875 390.613281 103.722656 391.191406 104.425781 C 391.769531 105.132812 392.308594 105.863281 392.816406 106.621094 C 393.320312 107.378906 393.789062 108.160156 394.21875 108.964844 C 394.648438 109.769531 395.035156 110.59375 395.382812 111.4375 C 395.730469 112.277344 396.039062 113.136719 396.304688 114.007812 C 396.566406 114.882812 396.789062 115.765625 396.964844 116.660156 C 397.144531 117.554688 397.277344 118.457031 397.367188 119.363281 C 397.457031 120.273438 397.5 121.183594 397.5 122.09375 Z M 397.5 122.09375 "/>
</clipPath>
<linearGradient id="linear3" gradientUnits="userSpaceOnUse" x1="195.100005" y1="96.306999" x2="226.812575" y2="96.306999" gradientTransform="matrix(1.737325,0,0,1.740656,2.953453,0.248075)">
<stop offset="0" style="stop-color:rgb(60.835266%,50.189209%,97.286987%);stop-opacity:1;"/>
<stop offset="0.03125" style="stop-color:rgb(60.736084%,50.254822%,97.396851%);stop-opacity:1;"/>
<stop offset="0.0625" style="stop-color:rgb(60.53772%,50.386047%,97.618103%);stop-opacity:1;"/>
<stop offset="0.09375" style="stop-color:rgb(60.33783%,50.517273%,97.839355%);stop-opacity:1;"/>
<stop offset="0.125" style="stop-color:rgb(60.139465%,50.648499%,98.062134%);stop-opacity:1;"/>
<stop offset="0.15625" style="stop-color:rgb(59.941101%,50.779724%,98.283386%);stop-opacity:1;"/>
<stop offset="0.1875" style="stop-color:rgb(59.741211%,50.91095%,98.504639%);stop-opacity:1;"/>
<stop offset="0.21875" style="stop-color:rgb(59.542847%,51.043701%,98.725891%);stop-opacity:1;"/>
<stop offset="0.25" style="stop-color:rgb(59.342957%,51.174927%,98.947144%);stop-opacity:1;"/>
<stop offset="0.28125" style="stop-color:rgb(59.144592%,51.306152%,99.168396%);stop-opacity:1;"/>
<stop offset="0.3125" style="stop-color:rgb(58.946228%,51.437378%,99.389648%);stop-opacity:1;"/>
<stop offset="0.34375" style="stop-color:rgb(58.746338%,51.568604%,99.610901%);stop-opacity:1;"/>
<stop offset="0.375" style="stop-color:rgb(58.547974%,51.701355%,99.832153%);stop-opacity:1;"/>
<stop offset="0.5" style="stop-color:rgb(58.424377%,51.782227%,99.971008%);stop-opacity:1;"/>
<stop offset="1" style="stop-color:rgb(58.399963%,51.799011%,100%);stop-opacity:1;"/>
</linearGradient>
<clipPath id="clip10">
  <path d="M 296.570312 222 L 315 222 L 315 237.171875 L 296.570312 237.171875 Z M 296.570312 222 "/>
</clipPath>
<clipPath id="clip11">
  <path d="M 290.539062 226 L 306 226 L 306 237.171875 L 290.539062 237.171875 Z M 290.539062 226 "/>
</clipPath>
<clipPath id="clip12">
  <path d="M 166.386719 162.636719 L 294 162.636719 L 294 237.171875 L 166.386719 237.171875 Z M 166.386719 162.636719 "/>
</clipPath>
<clipPath id="clip13">
  <path d="M 84 236.519531 L 324.703125 236.519531 L 324.703125 237.171875 L 84 237.171875 Z M 84 236.519531 "/>
</clipPath>
</defs>
<g id="surface1">
<g clip-path="url(#clip1)" clip-rule="nonzero">
<path style=" stroke:none;fill-rule:nonzero;fill:rgb(100%,100%,100%);fill-opacity:1;" d="M 0 0.191406 L 397.5 0.191406 L 397.5 313.691406 L 0 313.691406 Z M 0 0.191406 "/>
<path style=" stroke:none;fill-rule:nonzero;fill:rgb(100%,100%,100%);fill-opacity:1;" d="M 0 0.191406 L 397.5 0.191406 L 397.5 306.191406 L 0 306.191406 Z M 0 0.191406 "/>
<path style=" stroke:none;fill-rule:nonzero;fill:rgb(100%,100%,100%);fill-opacity:1;" d="M 0 0.191406 L 397.5 0.191406 L 397.5 306.191406 L 0 306.191406 Z M 0 0.191406 "/>
</g>
<g clip-path="url(#clip2)" clip-rule="nonzero">
<g clip-path="url(#clip3)" clip-rule="nonzero">
<path style=" stroke:none;fill-rule:nonzero;fill:url(#linear0);" d="M 0 33.667969 L 0 305.808594 L 367.964844 305.808594 L 367.964844 33.667969 Z M 0 33.667969 "/>
</g>
</g>
<g clip-path="url(#clip4)" clip-rule="nonzero">
<g clip-path="url(#clip5)" clip-rule="nonzero">
<path style=" stroke:none;fill-rule:nonzero;fill:url(#linear1);" d="M 170.605469 0.25 L 170.605469 33.320312 L 203.613281 33.320312 L 203.613281 0.25 Z M 170.605469 0.25 "/>
</g>
</g>
<g clip-path="url(#clip6)" clip-rule="nonzero">
<g clip-path="url(#clip7)" clip-rule="nonzero">
<path style=" stroke:none;fill-rule:nonzero;fill:url(#linear2);" d="M 170.777344 272.3125 L 170.777344 293.546875 L 191.972656 293.546875 L 191.972656 272.3125 Z M 170.777344 272.3125 "/>
</g>
</g>
<g clip-path="url(#clip8)" clip-rule="nonzero">
<g clip-path="url(#clip9)" clip-rule="nonzero">
<path style=" stroke:none;fill-rule:nonzero;fill:url(#linear3);" d="M 341.90625 94.242188 L 341.90625 149.945312 L 397 149.945312 L 397 94.242188 Z M 341.90625 94.242188 "/>
</g>
</g>
<path style=" stroke:none;fill-rule:nonzero;fill:rgb(12.939453%,11.369324%,11.369324%);fill-opacity:1;" d="M 118.964844 77.296875 C 118.949219 77.300781 115.621094 77.863281 112.269531 79.734375 C 110.59375 80.671875 108.914062 81.9375 107.648438 83.636719 C 106.375 85.332031 105.527344 87.464844 105.53125 90.101562 C 105.53125 90.898438 105.605469 91.742188 105.773438 92.636719 C 105.800781 92.769531 105.929688 92.859375 106.066406 92.835938 C 106.203125 92.808594 106.292969 92.679688 106.269531 92.542969 C 106.105469 91.679688 106.03125 90.867188 106.03125 90.101562 C 106.03125 87.574219 106.835938 85.558594 108.050781 83.9375 C 109.863281 81.5 112.613281 79.957031 114.914062 79.03125 C 116.066406 78.566406 117.101562 78.257812 117.847656 78.0625 C 118.222656 77.96875 118.523438 77.902344 118.730469 77.859375 C 118.835938 77.835938 118.914062 77.816406 118.96875 77.808594 C 119.023438 77.796875 119.046875 77.792969 119.046875 77.792969 C 119.1875 77.769531 119.277344 77.640625 119.253906 77.503906 C 119.230469 77.367188 119.101562 77.277344 118.964844 77.300781 "/>
<path style=" stroke:none;fill-rule:nonzero;fill:rgb(97.648621%,69.018555%,19.999695%);fill-opacity:1;" d="M 187.851562 139.84375 C 190.464844 140.535156 215.085938 144.796875 230.671875 170.101562 C 241.019531 186.898438 271.75 236.875 271.75 236.875 L 201.699219 236.875 C 201.699219 236.875 164.007812 133.570312 187.851562 139.84375 "/>
<path style=" stroke:none;fill-rule:nonzero;fill:rgb(97.648621%,69.018555%,19.999695%);fill-opacity:1;" d="M 110.929688 120.597656 L 187.851562 139.84375 L 220.035156 236.898438 L 102.855469 236.898438 L 110.929688 120.597656 "/>
<path style=" stroke:none;fill-rule:nonzero;fill:rgb(12.939453%,11.369324%,11.369324%);fill-opacity:1;" d="M 184.453125 139.210938 L 184.480469 139.246094 C 184.742188 139.605469 186.902344 142.746094 186.898438 146.5625 C 186.898438 148.058594 186.574219 149.65625 185.679688 151.25 C 184.789062 152.847656 183.320312 154.445312 181.027344 155.925781 C 180.925781 155.988281 180.882812 156.117188 180.925781 156.226562 C 180.925781 156.226562 180.941406 156.265625 180.96875 156.347656 C 181.175781 156.910156 181.996094 159.40625 181.996094 162.417969 C 181.996094 164.746094 181.507812 167.375 179.890625 169.683594 C 178.273438 171.996094 175.523438 174.011719 170.925781 175.097656 C 170.828125 175.121094 170.753906 175.199219 170.734375 175.296875 L 170.730469 175.335938 C 170.652344 175.742188 169.863281 179.375 166.691406 182.890625 C 163.519531 186.410156 157.972656 189.832031 148.273438 189.835938 C 147.515625 189.835938 146.730469 189.8125 145.917969 189.769531 C 145.78125 189.761719 145.664062 189.871094 145.65625 190.007812 C 145.648438 190.148438 145.753906 190.265625 145.890625 190.273438 C 146.710938 190.316406 147.503906 190.335938 148.273438 190.335938 C 158.40625 190.339844 164.171875 186.617188 167.371094 182.878906 C 170.574219 179.140625 171.226562 175.414062 171.230469 175.386719 L 170.984375 175.34375 L 171.042969 175.585938 C 175.730469 174.480469 178.609375 172.394531 180.304688 169.972656 C 181.996094 167.550781 182.5 164.8125 182.5 162.417969 C 182.496094 158.871094 181.402344 156.0625 181.394531 156.046875 L 181.160156 156.136719 L 181.296875 156.347656 C 183.652344 154.832031 185.179688 153.171875 186.117188 151.496094 C 187.058594 149.820312 187.402344 148.128906 187.402344 146.5625 C 187.398438 142.285156 184.867188 138.933594 184.855469 138.910156 C 184.773438 138.800781 184.613281 138.777344 184.503906 138.859375 C 184.394531 138.945312 184.371094 139.101562 184.453125 139.210938 "/>
<path style=" stroke:none;fill-rule:nonzero;fill:rgb(76.469421%,47.839355%,27.839661%);fill-opacity:1;" d="M 175.066406 136.710938 C 175.066406 136.710938 179.976562 165.457031 150.492188 175.34375 L 134.347656 150.617188 L 169.933594 135.296875 L 175.066406 136.710938 "/>
<path style=" stroke:none;fill-rule:nonzero;fill:rgb(12.939453%,11.369324%,11.369324%);fill-opacity:1;" d="M 171.867188 119.90625 L 171.890625 119.941406 C 172.011719 120.113281 172.570312 120.933594 173.097656 122.046875 C 173.625 123.160156 174.113281 124.5625 174.109375 125.878906 C 174.109375 126.546875 173.988281 127.1875 173.691406 127.769531 C 173.394531 128.351562 172.929688 128.878906 172.207031 129.316406 C 171.808594 129.566406 171.113281 129.859375 170.507812 130.289062 C 170.207031 130.503906 169.921875 130.757812 169.707031 131.070312 C 169.496094 131.378906 169.359375 131.753906 169.359375 132.175781 C 169.363281 132.902344 169.742188 133.734375 170.65625 134.753906 C 171.230469 135.394531 172.234375 136.449219 173.089844 137.640625 C 173.949219 138.824219 174.640625 140.152344 174.632812 141.257812 C 174.632812 141.742188 174.511719 142.179688 174.226562 142.582031 C 173.9375 142.984375 173.476562 143.359375 172.773438 143.671875 C 172.367188 143.855469 171.863281 143.941406 171.320312 143.941406 C 170.359375 143.941406 169.285156 143.660156 168.472656 143.195312 C 168.070312 142.960938 167.730469 142.683594 167.5 142.382812 C 167.269531 142.078125 167.144531 141.757812 167.144531 141.417969 C 167.144531 141.261719 167.167969 141.09375 167.230469 140.925781 C 167.285156 140.761719 167.367188 140.664062 167.46875 140.59375 C 167.574219 140.527344 167.707031 140.488281 167.875 140.484375 C 168.378906 140.480469 169.160156 140.886719 169.785156 141.71875 C 170.414062 142.546875 170.90625 143.789062 170.90625 145.421875 C 170.90625 146.21875 170.789062 147.109375 170.511719 148.09375 C 170.222656 149.121094 169.425781 149.957031 168.394531 150.53125 C 167.367188 151.109375 166.109375 151.421875 164.941406 151.421875 C 164.804688 151.421875 164.691406 151.535156 164.691406 151.671875 C 164.691406 151.8125 164.804688 151.925781 164.941406 151.925781 C 166.195312 151.921875 167.527344 151.59375 168.640625 150.972656 C 169.75 150.351562 170.65625 149.425781 170.996094 148.230469 C 171.285156 147.207031 171.410156 146.269531 171.410156 145.421875 C 171.410156 143.6875 170.886719 142.335938 170.1875 141.414062 C 169.484375 140.496094 168.617188 139.988281 167.875 139.984375 C 167.628906 139.980469 167.390625 140.042969 167.191406 140.175781 C 166.992188 140.308594 166.839844 140.511719 166.753906 140.757812 C 166.679688 140.980469 166.640625 141.203125 166.640625 141.417969 C 166.640625 141.886719 166.816406 142.316406 167.101562 142.6875 C 167.527344 143.242188 168.1875 143.671875 168.9375 143.976562 C 169.6875 144.277344 170.527344 144.445312 171.320312 144.445312 C 171.917969 144.445312 172.488281 144.347656 172.976562 144.132812 C 173.742188 143.792969 174.285156 143.367188 174.632812 142.875 C 174.988281 142.382812 175.136719 141.824219 175.136719 141.257812 C 175.132812 139.949219 174.375 138.574219 173.496094 137.34375 C 172.617188 136.121094 171.597656 135.050781 171.03125 134.417969 C 170.15625 133.445312 169.859375 132.714844 169.863281 132.175781 C 169.863281 131.859375 169.960938 131.59375 170.125 131.351562 C 170.371094 130.988281 170.785156 130.683594 171.226562 130.425781 C 171.667969 130.164062 172.128906 129.957031 172.46875 129.746094 C 173.261719 129.265625 173.804688 128.660156 174.140625 127.996094 C 174.480469 127.328125 174.613281 126.605469 174.613281 125.878906 C 174.609375 124.34375 174.023438 122.789062 173.441406 121.605469 C 172.863281 120.425781 172.28125 119.621094 172.277344 119.613281 C 172.195312 119.5 172.039062 119.472656 171.925781 119.554688 C 171.8125 119.636719 171.789062 119.792969 171.867188 119.90625 "/>
<path style=" stroke:none;fill-rule:nonzero;fill:rgb(76.469421%,47.839355%,27.839661%);fill-opacity:1;" d="M 101.878906 147.546875 C 91.371094 142.867188 74.09375 165.527344 76.117188 176.886719 C 80.183594 199.738281 88.261719 224.429688 96.535156 236.898438 L 147.667969 236.898438 C 147.488281 207.496094 126.132812 158.351562 101.878906 147.546875 "/>
<path style=" stroke:none;fill-rule:nonzero;fill:rgb(97.648621%,69.018555%,19.999695%);fill-opacity:1;" d="M 114.53125 122.554688 C 111.925781 121.917969 107.632812 120.925781 104.289062 120.136719 C 91.707031 117.167969 74.632812 122.699219 73.496094 145.898438 C 73.066406 154.621094 74.097656 165.527344 76.117188 176.886719 L 143.527344 190.492188 L 114.53125 122.554688 "/>
<path style=" stroke:none;fill-rule:nonzero;fill:rgb(12.939453%,11.369324%,11.369324%);fill-opacity:1;" d="M 111.351562 125.609375 C 111.351562 125.609375 88.640625 93.820312 121.460938 77.125 L 111.351562 125.609375 "/>
<path style=" stroke:none;fill-rule:nonzero;fill:rgb(12.939453%,11.369324%,11.369324%);fill-opacity:1;" d="M 111.546875 125.714844 C 111.546875 125.714844 99.578125 122.515625 104.78125 110.945312 C 104.78125 110.945312 97.695312 99.917969 105.664062 92.585938 C 105.664062 92.585938 105.339844 80.914062 118.402344 79.117188 "/>
<path style=" stroke:none;fill-rule:nonzero;fill:rgb(76.469421%,47.839355%,27.839661%);fill-opacity:1;" d="M 271.75 216.765625 C 271.75 216.765625 295.847656 216.90625 307.765625 221.101562 C 312.277344 222.6875 319.578125 227.957031 318.523438 236.921875 L 275.597656 236.921875 L 271.75 216.765625 "/>
<g clip-path="url(#clip10)" clip-rule="nonzero">
<path style=" stroke:none;fill-rule:nonzero;fill:rgb(12.939453%,11.369324%,11.369324%);fill-opacity:1;" d="M 314.902344 236.878906 C 314.898438 236.855469 314.296875 233.449219 311.769531 229.882812 C 309.242188 226.324219 304.765625 222.609375 297.097656 222.046875 C 296.957031 222.035156 296.839844 222.140625 296.828125 222.277344 C 296.816406 222.417969 296.921875 222.535156 297.058594 222.546875 C 304.578125 223.105469 308.890625 226.707031 311.359375 230.175781 C 312.589844 231.910156 313.355469 233.613281 313.808594 234.878906 C 314.039062 235.511719 314.1875 236.035156 314.28125 236.398438 C 314.328125 236.582031 314.359375 236.722656 314.378906 236.820312 C 314.390625 236.871094 314.398438 236.90625 314.402344 236.929688 L 314.410156 236.964844 C 314.433594 237.101562 314.5625 237.191406 314.699219 237.167969 C 314.835938 237.140625 314.925781 237.011719 314.902344 236.878906 "/>
</g>
<g clip-path="url(#clip11)" clip-rule="nonzero">
<path style=" stroke:none;fill-rule:nonzero;fill:rgb(12.939453%,11.369324%,11.369324%);fill-opacity:1;" d="M 305.625 236.882812 C 305.617188 236.855469 305.308594 234.75 303.300781 232.355469 C 301.292969 229.960938 297.589844 227.292969 290.863281 226.125 C 290.726562 226.101562 290.597656 226.195312 290.574219 226.332031 C 290.550781 226.46875 290.640625 226.597656 290.777344 226.621094 C 297.410156 227.777344 300.984375 230.378906 302.914062 232.679688 C 303.882812 233.828125 304.433594 234.90625 304.746094 235.691406 C 304.902344 236.085938 305 236.402344 305.054688 236.625 C 305.082031 236.734375 305.101562 236.820312 305.113281 236.875 L 305.125 236.9375 L 305.125 236.957031 C 305.144531 237.09375 305.273438 237.191406 305.410156 237.167969 C 305.546875 237.148438 305.644531 237.019531 305.625 236.882812 "/>
</g>
<path style=" stroke:none;fill-rule:nonzero;fill:rgb(12.939453%,11.369324%,11.369324%);fill-opacity:1;" d="M 316.816406 228.324219 C 316.800781 228.328125 316.203125 228.46875 315.582031 228.859375 C 315.273438 229.054688 314.957031 229.3125 314.71875 229.664062 C 314.476562 230.011719 314.3125 230.449219 314.3125 230.96875 C 314.3125 231.199219 314.34375 231.449219 314.414062 231.710938 L 314.65625 231.648438 L 314.414062 231.707031 C 314.417969 231.722656 314.601562 232.476562 315.125 233.246094 C 315.386719 233.628906 315.734375 234.019531 316.191406 234.316406 C 316.652344 234.613281 317.21875 234.8125 317.902344 234.8125 C 318.140625 234.8125 318.390625 234.789062 318.65625 234.738281 C 318.792969 234.710938 318.882812 234.578125 318.855469 234.441406 C 318.828125 234.304688 318.695312 234.214844 318.5625 234.242188 C 318.324219 234.289062 318.105469 234.308594 317.902344 234.308594 C 317.320312 234.308594 316.855469 234.144531 316.464844 233.894531 C 315.886719 233.523438 315.488281 232.941406 315.242188 232.457031 C 315.117188 232.210938 315.03125 231.992188 314.976562 231.832031 C 314.949219 231.753906 314.929688 231.691406 314.917969 231.648438 L 314.902344 231.601562 L 314.898438 231.585938 L 314.898438 231.582031 C 314.839844 231.359375 314.816406 231.15625 314.816406 230.96875 C 314.816406 230.554688 314.9375 230.226562 315.132812 229.949219 C 315.417969 229.535156 315.867188 229.246094 316.25 229.0625 C 316.4375 228.972656 316.613281 228.910156 316.734375 228.871094 C 316.796875 228.851562 316.847656 228.835938 316.882812 228.824219 L 316.917969 228.816406 L 316.929688 228.8125 C 317.0625 228.78125 317.148438 228.648438 317.117188 228.515625 C 317.085938 228.378906 316.953125 228.292969 316.816406 228.324219 "/>
<path style=" stroke:none;fill-rule:nonzero;fill:rgb(12.939453%,11.369324%,11.369324%);fill-opacity:1;" d="M 310.960938 229.011719 C 310.945312 229.011719 310.097656 229.097656 309.230469 229.488281 C 308.792969 229.6875 308.351562 229.960938 308.007812 230.359375 C 307.664062 230.75 307.429688 231.273438 307.429688 231.914062 C 307.429688 232.164062 307.464844 232.4375 307.542969 232.726562 L 307.550781 232.746094 C 307.558594 232.765625 307.796875 233.449219 308.425781 234.144531 C 309.054688 234.839844 310.089844 235.542969 311.632812 235.542969 C 312.355469 235.542969 313.1875 235.390625 314.132812 235.023438 C 314.265625 234.972656 314.328125 234.828125 314.277344 234.699219 C 314.226562 234.570312 314.082031 234.503906 313.953125 234.554688 C 313.054688 234.902344 312.285156 235.039062 311.632812 235.039062 C 310.25 235.039062 309.363281 234.425781 308.796875 233.808594 C 308.515625 233.5 308.320312 233.1875 308.195312 232.953125 C 308.132812 232.839844 308.089844 232.742188 308.0625 232.675781 L 308.03125 232.601562 L 308.023438 232.582031 L 308.023438 232.578125 L 307.785156 232.664062 L 308.027344 232.597656 C 307.960938 232.347656 307.933594 232.117188 307.933594 231.914062 C 307.933594 231.394531 308.113281 231.007812 308.386719 230.6875 C 308.800781 230.207031 309.457031 229.902344 310.015625 229.730469 C 310.292969 229.644531 310.546875 229.585938 310.726562 229.554688 C 310.816406 229.535156 310.886719 229.523438 310.9375 229.519531 C 310.988281 229.511719 311.011719 229.507812 311.011719 229.507812 C 311.148438 229.496094 311.246094 229.371094 311.234375 229.234375 C 311.21875 229.09375 311.097656 228.996094 310.960938 229.011719 "/>
<path style=" stroke:none;fill-rule:nonzero;fill:rgb(12.939453%,11.369324%,11.369324%);fill-opacity:1;" d="M 301.289062 230.507812 C 301.273438 230.507812 300.445312 230.628906 299.597656 231.042969 C 299.175781 231.25 298.742188 231.53125 298.40625 231.917969 C 298.070312 232.304688 297.839844 232.808594 297.839844 233.417969 C 297.839844 233.476562 297.84375 233.535156 297.847656 233.59375 L 297.851562 233.632812 C 297.859375 233.664062 298.007812 234.28125 298.660156 234.894531 C 299.308594 235.511719 300.457031 236.105469 302.394531 236.101562 C 303.144531 236.101562 304.007812 236.011719 305.015625 235.808594 C 305.152344 235.78125 305.238281 235.648438 305.210938 235.511719 C 305.183594 235.375 305.050781 235.289062 304.914062 235.316406 C 303.9375 235.515625 303.105469 235.597656 302.394531 235.597656 C 300.558594 235.597656 299.558594 235.050781 299.003906 234.53125 C 298.726562 234.269531 298.558594 234.011719 298.460938 233.820312 C 298.414062 233.722656 298.382812 233.644531 298.363281 233.59375 L 298.347656 233.535156 L 298.34375 233.523438 L 298.097656 233.578125 L 298.347656 233.558594 C 298.34375 233.511719 298.34375 233.464844 298.34375 233.417969 C 298.34375 232.9375 298.515625 232.5625 298.789062 232.246094 C 299.195312 231.769531 299.839844 231.449219 300.386719 231.257812 C 300.660156 231.164062 300.90625 231.097656 301.082031 231.058594 C 301.171875 231.039062 301.242188 231.023438 301.292969 231.015625 C 301.339844 231.003906 301.363281 231.003906 301.363281 231.003906 C 301.5 230.980469 301.59375 230.855469 301.574219 230.71875 C 301.550781 230.582031 301.425781 230.484375 301.289062 230.507812 "/>
<path style=" stroke:none;fill-rule:nonzero;fill:rgb(6.669617%,7.449341%,25.099182%);fill-opacity:1;" d="M 162.546875 236.898438 L 189.089844 160.574219 L 289.769531 160.574219 L 293.617188 163.09375 L 268.722656 236.898438 L 162.546875 236.898438 "/>
<g clip-path="url(#clip12)" clip-rule="nonzero">
<path style=" stroke:none;fill-rule:nonzero;fill:rgb(12.939453%,11.369324%,11.369324%);fill-opacity:1;" d="M 167.324219 236.980469 L 191.886719 163.300781 L 293.617188 163.347656 C 293.757812 163.347656 293.871094 163.234375 293.871094 163.09375 C 293.871094 162.957031 293.757812 162.84375 293.617188 162.84375 L 191.703125 162.796875 C 191.59375 162.796875 191.5 162.867188 191.464844 162.96875 L 166.847656 236.820312 C 166.800781 236.953125 166.875 237.09375 167.003906 237.136719 C 167.136719 237.183594 167.28125 237.109375 167.324219 236.980469 "/>
</g>
<path style=" stroke:none;fill-rule:nonzero;fill:rgb(22.749329%,57.649231%,89.7995%);fill-opacity:1;" d="M 176.4375 208.84375 L 197.066406 236.898438 L 302.605469 236.898438 L 277.847656 208.84375 L 176.4375 208.84375 "/>
<path style=" stroke:none;fill-rule:nonzero;fill:rgb(76.469421%,47.839355%,27.839661%);fill-opacity:1;" d="M 142.464844 79.199219 C 157.375 78.292969 173.136719 84.699219 172.871094 109.109375 C 172.800781 115.695312 171.03125 128.800781 169.933594 135.296875 C 168.460938 143.972656 162.546875 159.234375 141.183594 154.222656 L 112.054688 119.613281 C 112.054688 119.613281 111.894531 81.058594 142.464844 79.199219 "/>
<path style=" stroke:none;fill-rule:nonzero;fill:rgb(12.939453%,11.369324%,11.369324%);fill-opacity:1;" d="M 155.816406 120.847656 L 154.664062 133.027344 C 154.652344 133.164062 154.75 133.289062 154.890625 133.300781 C 155.027344 133.316406 155.152344 133.210938 155.164062 133.074219 L 156.316406 120.894531 C 156.328125 120.757812 156.226562 120.636719 156.089844 120.621094 C 155.949219 120.609375 155.828125 120.710938 155.816406 120.847656 "/>
<path style=" stroke:none;fill-rule:nonzero;fill:rgb(12.939453%,11.369324%,11.369324%);fill-opacity:1;" d="M 143.347656 122.410156 C 143.121094 123.742188 143.65625 125 144.546875 125.226562 C 145.429688 125.453125 146.332031 124.558594 146.5625 123.226562 C 146.789062 121.898438 146.25 120.636719 145.367188 120.410156 C 144.476562 120.1875 143.574219 121.082031 143.347656 122.410156 "/>
<path style=" stroke:none;fill-rule:nonzero;fill:rgb(12.939453%,11.369324%,11.369324%);fill-opacity:1;" d="M 160.941406 125.203125 C 160.710938 126.53125 161.246094 127.792969 162.136719 128.019531 C 163.023438 128.242188 163.925781 127.347656 164.152344 126.019531 C 164.378906 124.6875 163.84375 123.429688 162.957031 123.203125 C 162.070312 122.980469 161.164062 123.875 160.941406 125.203125 "/>
<path style=" stroke:none;fill-rule:nonzero;fill:rgb(12.939453%,11.369324%,11.369324%);fill-opacity:1;" d="M 141.523438 136.25 C 141.527344 136.328125 141.53125 137.3125 142.109375 138.308594 C 142.398438 138.808594 142.835938 139.308594 143.480469 139.679688 C 144.128906 140.046875 144.980469 140.285156 146.085938 140.285156 C 146.386719 140.285156 146.707031 140.269531 147.050781 140.230469 C 147.1875 140.21875 147.289062 140.09375 147.273438 139.953125 C 147.257812 139.816406 147.132812 139.71875 146.996094 139.734375 C 146.671875 139.769531 146.367188 139.785156 146.085938 139.785156 C 145.050781 139.785156 144.292969 139.5625 143.730469 139.242188 C 142.890625 138.757812 142.464844 138.035156 142.246094 137.414062 C 142.03125 136.789062 142.027344 136.273438 142.027344 136.25 C 142.027344 136.109375 141.914062 136 141.773438 136 C 141.636719 136 141.523438 136.109375 141.523438 136.25 "/>
<path style=" stroke:none;fill-rule:nonzero;fill:rgb(76.469421%,47.839355%,27.839661%);fill-opacity:1;" d="M 112.054688 119.613281 C 112.054688 119.613281 110.007812 133.0625 112.902344 138.535156 C 116.679688 145.683594 119.9375 148.210938 141.183594 154.222656 C 141.183594 154.222656 135.289062 116.84375 112.054688 119.613281 "/>
<path style=" stroke:none;fill-rule:nonzero;fill:rgb(76.469421%,47.839355%,27.839661%);fill-opacity:1;" d="M 111.351562 129.535156 C 111.351562 129.535156 102.304688 132.28125 105.46875 143.421875 C 106.636719 147.53125 108.429688 151.535156 115.234375 157.449219 C 115.234375 157.449219 110.144531 173.265625 105.46875 185.089844 C 100.792969 196.917969 89.804688 220.847656 96.535156 236.898438 L 147.667969 236.898438 C 148.023438 222.582031 150.183594 188.816406 150.535156 174.5 C 150.734375 166.25 149.132812 154.109375 134.347656 150.617188 C 125.820312 148.601562 113.265625 144.0625 111.351562 129.535156 "/>
<path style=" stroke:none;fill-rule:nonzero;fill:rgb(12.939453%,11.369324%,11.369324%);fill-opacity:1;" d="M 142.007812 154.664062 C 143.773438 154.976562 145.53125 155.125 147.246094 155.125 C 155.019531 155.121094 161.972656 152.117188 165.242188 147.699219 C 168.1875 143.707031 169.566406 138.953125 170.179688 135.335938 C 170.203125 135.203125 170.109375 135.070312 169.972656 135.046875 C 169.835938 135.023438 169.707031 135.117188 169.683594 135.253906 C 169.082031 138.820312 167.714844 143.503906 164.839844 147.398438 C 161.71875 151.640625 154.890625 154.625 147.246094 154.621094 C 145.558594 154.621094 143.832031 154.476562 142.097656 154.167969 C 141.960938 154.144531 141.828125 154.234375 141.804688 154.371094 C 141.78125 154.511719 141.871094 154.640625 142.007812 154.664062 "/>
<path style=" stroke:none;fill-rule:nonzero;fill:rgb(12.939453%,11.369324%,11.369324%);fill-opacity:1;" d="M 150.761719 175.351562 C 150.769531 175.0625 150.777344 174.78125 150.785156 174.507812 C 150.800781 173.886719 150.8125 173.25 150.8125 172.605469 C 150.808594 168.667969 150.410156 164.414062 148.148438 160.484375 C 145.886719 156.558594 141.769531 152.980469 134.429688 150.378906 C 130.296875 148.914062 125.050781 147.28125 120.613281 144.21875 C 116.175781 141.152344 112.550781 136.695312 111.601562 129.5 C 111.585938 129.363281 111.457031 129.265625 111.320312 129.285156 C 111.183594 129.300781 111.085938 129.425781 111.105469 129.566406 C 112.0625 136.902344 115.808594 141.519531 120.328125 144.632812 C 124.847656 147.75 130.140625 149.390625 134.261719 150.855469 C 141.527344 153.429688 145.515625 156.925781 147.710938 160.738281 C 149.90625 164.546875 150.308594 168.699219 150.308594 172.605469 C 150.308594 173.246094 150.296875 173.875 150.28125 174.496094 C 150.277344 174.769531 150.269531 175.050781 150.261719 175.332031 C 150.257812 175.472656 150.367188 175.589844 150.503906 175.59375 C 150.644531 175.597656 150.757812 175.488281 150.761719 175.351562 "/>
<path style=" stroke:none;fill-rule:nonzero;fill:rgb(12.939453%,11.369324%,11.369324%);fill-opacity:1;" d="M 152.820312 72.347656 C 155.703125 68.804688 153.878906 63.253906 147.621094 60.800781 C 147.621094 60.800781 150.152344 42.9375 132.296875 50.355469 C 132.296875 50.355469 116.285156 45.140625 117.675781 61.460938 C 117.675781 61.460938 112.910156 65.109375 112.628906 69.558594 C 112.4375 72.550781 113.847656 77.285156 120.960938 78.765625 C 134.351562 81.550781 147.6875 78.644531 152.820312 72.347656 "/>
<path style=" stroke:none;fill-rule:nonzero;fill:rgb(12.939453%,11.369324%,11.369324%);fill-opacity:1;" d="M 177.242188 94.085938 C 184.597656 112.40625 172.074219 119.761719 172.074219 119.761719 L 172.765625 108.761719 C 172.765625 108.761719 164.242188 106.75 163.371094 97.765625 C 163.371094 97.765625 156.066406 104.726562 147.667969 93.9375 C 147.667969 93.9375 146.5 103.722656 134.347656 98.953125 C 134.347656 98.953125 136.046875 110.945312 123.996094 114.964844 L 112.4375 116.605469 C 112.4375 116.605469 92.796875 84.585938 132.929688 72.234375 C 144.734375 68.597656 166.214844 66.621094 177.242188 94.085938 "/>
<path style=" stroke:none;fill-rule:nonzero;fill:rgb(22.749329%,57.649231%,89.7995%);fill-opacity:1;" d="M 178.527344 97.765625 C 178.527344 97.765625 175.675781 88.253906 166.121094 83.1875 C 162.082031 81.042969 152.679688 76.527344 149.707031 73.847656 C 147.753906 72.082031 146.871094 66.75 160.105469 72.546875 C 167.257812 75.679688 181.800781 84.425781 178.527344 97.765625 "/>
<path style=" stroke:none;fill-rule:nonzero;fill:rgb(22.749329%,57.649231%,89.7995%);fill-opacity:1;" d="M 143.671875 75.417969 C 139.738281 77.300781 138.769531 76.789062 128.734375 84.425781 C 121.683594 89.792969 113.167969 102.921875 116.761719 117.78125 L 110.894531 118.3125 C 110.894531 118.3125 100.429688 69.5625 141.480469 69.558594 C 145.285156 69.558594 150.933594 71.941406 143.671875 75.417969 "/>
<path style=" stroke:none;fill-rule:nonzero;fill:rgb(22.749329%,57.649231%,89.7995%);fill-opacity:1;" d="M 147.585938 67.96875 C 149.53125 68.117188 155.089844 69.417969 152.71875 73.855469 C 151.558594 76.023438 148.746094 78.507812 143.117188 75.945312 C 141.035156 74.992188 136.828125 67.140625 147.585938 67.96875 "/>
<path style=" stroke:none;fill-rule:nonzero;fill:rgb(22.749329%,57.649231%,89.7995%);fill-opacity:1;" d="M 146.730469 68.5 C 146.730469 68.5 146.074219 58.207031 140.808594 55.167969 C 138.734375 53.972656 132.058594 55.371094 134.082031 61.960938 C 135.117188 65.335938 139.113281 70.21875 143.355469 72.605469 L 146.730469 68.5 "/>
<path style=" stroke:none;fill-rule:nonzero;fill:rgb(22.749329%,57.649231%,89.7995%);fill-opacity:1;" d="M 147.585938 67.96875 C 147.585938 67.96875 152.59375 52.226562 161.195312 59.128906 C 164.519531 61.796875 163.96875 68.128906 150.597656 72.484375 L 147.585938 67.96875 "/>
<path style=" stroke:none;fill-rule:nonzero;fill:rgb(12.939453%,11.369324%,11.369324%);fill-opacity:1;" d="M 124.605469 114.664062 L 124.628906 114.679688 C 124.746094 114.769531 125.324219 115.203125 125.855469 115.898438 C 126.394531 116.59375 126.890625 117.539062 126.886719 118.644531 C 126.886719 119.445312 126.636719 120.34375 125.929688 121.328125 C 125.699219 121.652344 125.429688 122.011719 125.214844 122.417969 C 125 122.820312 124.839844 123.277344 124.839844 123.789062 C 124.835938 124.425781 125.09375 125.121094 125.738281 125.859375 C 126.382812 126.605469 127.414062 127.402344 128.992188 128.296875 C 129.324219 128.484375 129.804688 128.832031 130.1875 129.265625 C 130.574219 129.699219 130.855469 130.214844 130.851562 130.730469 C 130.851562 131.179688 130.65625 131.664062 130.066406 132.195312 C 129.472656 132.71875 128.480469 133.269531 126.933594 133.777344 C 126.542969 133.910156 125.988281 134.085938 125.511719 134.410156 C 125.273438 134.574219 125.054688 134.777344 124.894531 135.035156 C 124.730469 135.296875 124.632812 135.613281 124.632812 135.972656 C 124.632812 136.445312 124.796875 136.988281 125.164062 137.625 C 125.535156 138.265625 126.113281 139.007812 126.964844 139.878906 C 127.308594 140.226562 127.742188 140.632812 128.082031 141.089844 C 128.425781 141.546875 128.667969 142.046875 128.667969 142.582031 C 128.667969 143.105469 128.445312 143.695312 127.78125 144.386719 C 127.113281 145.074219 126 145.84375 124.261719 146.675781 C 124.136719 146.734375 124.085938 146.886719 124.144531 147.011719 C 124.203125 147.136719 124.355469 147.1875 124.480469 147.128906 C 126.246094 146.28125 127.410156 145.488281 128.140625 144.738281 C 128.871094 143.988281 129.171875 143.257812 129.171875 142.582031 C 129.167969 141.890625 128.859375 141.292969 128.484375 140.789062 C 128.109375 140.285156 127.65625 139.863281 127.324219 139.523438 C 126.492188 138.675781 125.941406 137.964844 125.601562 137.375 C 125.261719 136.785156 125.132812 136.324219 125.132812 135.972656 C 125.136719 135.699219 125.207031 135.488281 125.320312 135.300781 C 125.492188 135.023438 125.78125 134.808594 126.109375 134.640625 C 126.4375 134.472656 126.796875 134.351562 127.09375 134.253906 C 128.675781 133.730469 129.726562 133.164062 130.398438 132.570312 C 131.066406 131.980469 131.355469 131.339844 131.355469 130.730469 C 131.351562 130.03125 130.996094 129.417969 130.566406 128.933594 C 130.132812 128.445312 129.621094 128.074219 129.242188 127.859375 C 127.6875 126.984375 126.707031 126.210938 126.117188 125.53125 C 125.53125 124.851562 125.339844 124.289062 125.339844 123.789062 C 125.339844 123.386719 125.464844 123.015625 125.660156 122.652344 C 125.847656 122.292969 126.101562 121.953125 126.339844 121.621094 C 127.097656 120.566406 127.394531 119.554688 127.390625 118.644531 C 127.390625 117.300781 126.757812 116.203125 126.140625 115.445312 C 125.519531 114.6875 124.90625 114.261719 124.894531 114.25 C 124.78125 114.171875 124.625 114.199219 124.542969 114.316406 C 124.464844 114.429688 124.492188 114.585938 124.605469 114.664062 "/>
<path style=" stroke:none;fill-rule:nonzero;fill:rgb(12.939453%,11.369324%,11.369324%);fill-opacity:1;" d="M 178.527344 97.765625 C 178.527344 97.765625 184.332031 101.613281 179.558594 108.214844 C 179.558594 108.214844 182.902344 119.28125 172.074219 119.761719 L 178.527344 97.765625 "/>
<path style=" stroke:none;fill-rule:nonzero;fill:rgb(76.469421%,47.839355%,27.839661%);fill-opacity:1;" d="M 123.996094 114.964844 C 123.996094 114.964844 122.839844 102.019531 113.265625 105.242188 C 109.84375 106.390625 104.988281 112.417969 112.054688 119.613281 L 123.996094 114.964844 "/>
<path style=" stroke:none;fill-rule:nonzero;fill:rgb(12.939453%,11.369324%,11.369324%);fill-opacity:1;" d="M 115.964844 104.769531 L 118.101562 117.207031 C 118.125 117.34375 118.253906 117.433594 118.390625 117.410156 C 118.527344 117.386719 118.621094 117.257812 118.597656 117.121094 L 116.460938 104.683594 C 116.4375 104.550781 116.308594 104.457031 116.171875 104.480469 C 116.035156 104.503906 115.941406 104.632812 115.964844 104.769531 "/>
<path style=" stroke:none;fill-rule:nonzero;fill:rgb(12.939453%,11.369324%,11.369324%);fill-opacity:1;" d="M 106.054688 182.890625 L 96.296875 210.070312 C 96.25 210.199219 96.316406 210.347656 96.445312 210.394531 C 96.578125 210.4375 96.722656 210.371094 96.769531 210.238281 L 106.53125 183.0625 C 106.578125 182.929688 106.507812 182.785156 106.378906 182.738281 C 106.246094 182.691406 106.101562 182.761719 106.054688 182.890625 "/>
<path style=" stroke:none;fill-rule:nonzero;fill:rgb(12.939453%,11.369324%,11.369324%);fill-opacity:1;" d="M 74.472656 167.597656 L 109.390625 174.703125 C 109.527344 174.730469 109.660156 174.644531 109.6875 174.507812 C 109.714844 174.371094 109.628906 174.238281 109.492188 174.210938 L 74.574219 167.105469 C 74.4375 167.078125 74.304688 167.164062 74.277344 167.300781 C 74.25 167.4375 74.335938 167.570312 74.472656 167.597656 "/>
<path style=" stroke:none;fill-rule:nonzero;fill:rgb(12.939453%,11.369324%,11.369324%);fill-opacity:1;" d="M 151.542969 69.054688 L 155.855469 64.359375 C 155.949219 64.257812 155.941406 64.097656 155.839844 64.003906 C 155.738281 63.910156 155.578125 63.917969 155.484375 64.019531 L 151.171875 68.714844 C 151.082031 68.816406 151.085938 68.976562 151.1875 69.066406 C 151.292969 69.164062 151.449219 69.15625 151.542969 69.054688 "/>
<path style=" stroke:none;fill-rule:nonzero;fill:rgb(12.939453%,11.369324%,11.369324%);fill-opacity:1;" d="M 143.417969 68.15625 L 140.921875 62.660156 C 140.863281 62.535156 140.714844 62.476562 140.589844 62.535156 C 140.464844 62.589844 140.40625 62.742188 140.464844 62.867188 L 142.957031 68.363281 C 143.019531 68.488281 143.164062 68.542969 143.292969 68.488281 C 143.417969 68.429688 143.472656 68.28125 143.417969 68.15625 "/>
<path style=" stroke:none;fill-rule:nonzero;fill:rgb(12.939453%,11.369324%,11.369324%);fill-opacity:1;" d="M 140.644531 72.238281 C 140.636719 72.238281 137.136719 72.949219 133.621094 74.148438 C 133.492188 74.191406 133.421875 74.332031 133.46875 74.464844 C 133.511719 74.597656 133.652344 74.667969 133.785156 74.621094 C 135.523438 74.027344 137.265625 73.554688 138.570312 73.230469 C 139.222656 73.070312 139.765625 72.945312 140.148438 72.859375 C 140.527344 72.773438 140.742188 72.730469 140.742188 72.730469 C 140.878906 72.703125 140.96875 72.570312 140.9375 72.433594 C 140.910156 72.296875 140.78125 72.210938 140.644531 72.238281 "/>
<path style=" stroke:none;fill-rule:nonzero;fill:rgb(12.939453%,11.369324%,11.369324%);fill-opacity:1;" d="M 153.117188 72.839844 C 153.117188 72.839844 153.328125 72.921875 153.6875 73.0625 C 154.765625 73.488281 157.148438 74.464844 158.882812 75.429688 C 159.003906 75.496094 159.15625 75.453125 159.222656 75.332031 C 159.292969 75.210938 159.246094 75.058594 159.128906 74.992188 C 156.761719 73.675781 153.296875 72.371094 153.292969 72.371094 C 153.160156 72.320312 153.015625 72.386719 152.96875 72.515625 C 152.917969 72.648438 152.984375 72.792969 153.117188 72.839844 "/>
<path style=" stroke:none;fill-rule:nonzero;fill:rgb(12.939453%,11.369324%,11.369324%);fill-opacity:1;" d="M 147.585938 67.96875 L 147.566406 68.21875 C 148.34375 68.277344 149.753906 68.535156 150.9375 69.113281 C 151.527344 69.402344 152.0625 69.769531 152.441406 70.21875 C 152.816406 70.675781 153.042969 71.199219 153.046875 71.847656 C 153.046875 72.378906 152.886719 73.007812 152.496094 73.738281 C 152.109375 74.464844 151.523438 75.226562 150.707031 75.804688 C 149.890625 76.382812 148.84375 76.78125 147.488281 76.78125 C 146.308594 76.78125 144.898438 76.480469 143.21875 75.714844 C 142.789062 75.519531 142.148438 74.890625 141.65625 74.074219 C 141.15625 73.257812 140.785156 72.265625 140.789062 71.347656 C 140.792969 70.503906 141.082031 69.742188 141.871094 69.152344 C 142.664062 68.5625 144 68.15625 146.085938 68.15625 C 146.542969 68.15625 147.035156 68.175781 147.566406 68.21875 L 147.605469 67.71875 C 147.0625 67.675781 146.558594 67.65625 146.085938 67.65625 C 143.9375 67.65625 142.496094 68.070312 141.574219 68.75 C 140.648438 69.429688 140.28125 70.386719 140.285156 71.347656 C 140.285156 72.398438 140.691406 73.464844 141.226562 74.335938 C 141.765625 75.210938 142.417969 75.894531 143.011719 76.171875 C 144.742188 76.960938 146.222656 77.285156 147.488281 77.285156 C 148.941406 77.285156 150.105469 76.851562 151 76.214844 C 151.894531 75.582031 152.523438 74.753906 152.941406 73.972656 C 153.359375 73.1875 153.550781 72.480469 153.550781 71.847656 C 153.550781 71.074219 153.265625 70.421875 152.824219 69.898438 C 152.160156 69.113281 151.164062 68.601562 150.183594 68.261719 C 149.203125 67.925781 148.234375 67.765625 147.605469 67.71875 L 147.585938 67.96875 "/>
<path style=" stroke:none;fill-rule:nonzero;fill:rgb(12.939453%,11.369324%,11.369324%);fill-opacity:1;" d="M 76.117188 176.886719 L 104.125 189.011719 L 106.292969 182.976562 Z M 76.117188 176.886719 "/>
<g clip-path="url(#clip13)" clip-rule="nonzero">
<path style=" stroke:none;fill-rule:nonzero;fill:rgb(12.939453%,11.369324%,11.369324%);fill-opacity:1;" d="M 324.453125 236.648438 L 84.675781 236.648438 C 84.535156 236.648438 84.421875 236.757812 84.421875 236.898438 C 84.421875 237.039062 84.535156 237.148438 84.675781 237.148438 L 324.453125 237.148438 C 324.589844 237.148438 324.703125 237.039062 324.703125 236.898438 C 324.703125 236.757812 324.589844 236.648438 324.453125 236.648438 "/>
</g>
<path style=" stroke:none;fill-rule:nonzero;fill:rgb(12.939453%,11.369324%,11.369324%);fill-opacity:1;" d="M 124.371094 114.882812 C 124.398438 114.882812 127.273438 114.882812 130.167969 112.851562 C 133.066406 110.824219 135.933594 106.75 135.929688 98.757812 C 135.929688 98.617188 135.816406 98.503906 135.679688 98.503906 C 135.539062 98.503906 135.425781 98.617188 135.425781 98.757812 C 135.421875 106.636719 132.636719 110.5 129.878906 112.441406 C 128.5 113.410156 127.117188 113.898438 126.082031 114.136719 C 125.5625 114.261719 125.132812 114.320312 124.832031 114.351562 C 124.679688 114.367188 124.566406 114.375 124.488281 114.375 L 124.398438 114.378906 L 124.371094 114.378906 C 124.230469 114.378906 124.121094 114.492188 124.121094 114.628906 C 124.121094 114.769531 124.230469 114.882812 124.371094 114.882812 "/>
<path style=" stroke:none;fill-rule:nonzero;fill:rgb(12.939453%,11.369324%,11.369324%);fill-opacity:1;" d="M 146.535156 95.113281 C 146.542969 95.125 147.617188 96.480469 149.414062 97.839844 C 151.210938 99.199219 153.738281 100.570312 156.660156 100.570312 C 158.9375 100.574219 161.441406 99.730469 163.964844 97.433594 C 164.066406 97.339844 164.074219 97.183594 163.980469 97.078125 C 163.886719 96.976562 163.726562 96.96875 163.625 97.0625 C 161.175781 99.285156 158.8125 100.066406 156.660156 100.070312 C 153.902344 100.070312 151.460938 98.761719 149.71875 97.4375 C 148.84375 96.777344 148.140625 96.117188 147.664062 95.621094 C 147.421875 95.375 147.238281 95.167969 147.113281 95.023438 C 147.050781 94.953125 147.003906 94.894531 146.972656 94.859375 L 146.925781 94.800781 C 146.84375 94.695312 146.683594 94.675781 146.574219 94.761719 C 146.464844 94.847656 146.449219 95.007812 146.535156 95.113281 "/>
<path style=" stroke:none;fill-rule:nonzero;fill:rgb(12.939453%,11.369324%,11.369324%);fill-opacity:1;" d="M 178.09375 97.96875 L 178.128906 97.992188 C 178.300781 98.128906 179.136719 98.796875 179.917969 99.894531 C 180.699219 100.996094 181.425781 102.515625 181.425781 104.359375 C 181.425781 106.257812 180.664062 108.519531 178.339844 111.082031 C 178.25 111.183594 178.257812 111.34375 178.359375 111.4375 C 178.464844 111.527344 178.621094 111.519531 178.714844 111.417969 C 181.101562 108.792969 181.929688 106.398438 181.929688 104.359375 C 181.929688 102.246094 181.039062 100.542969 180.160156 99.378906 C 179.28125 98.210938 178.402344 97.570312 178.390625 97.5625 C 178.277344 97.480469 178.121094 97.503906 178.039062 97.617188 C 177.957031 97.730469 177.980469 97.886719 178.09375 97.96875 "/>
<path style=" stroke:none;fill-rule:nonzero;fill:rgb(12.939453%,11.369324%,11.369324%);fill-opacity:1;" d="M 103.964844 108.9375 C 103.957031 108.957031 102.328125 112.054688 102.328125 115.710938 C 102.324219 117.605469 102.769531 119.65625 104.121094 121.476562 C 105.472656 123.300781 107.726562 124.878906 111.285156 125.851562 C 111.421875 125.890625 111.558594 125.8125 111.59375 125.679688 C 111.632812 125.542969 111.554688 125.40625 111.421875 125.367188 C 107.9375 124.410156 105.800781 122.894531 104.523438 121.179688 C 103.253906 119.460938 102.832031 117.527344 102.832031 115.710938 C 102.832031 113.957031 103.226562 112.316406 103.621094 111.117188 C 103.820312 110.519531 104.019531 110.027344 104.167969 109.691406 C 104.238281 109.523438 104.304688 109.390625 104.347656 109.300781 L 104.394531 109.203125 L 104.410156 109.171875 C 104.476562 109.046875 104.425781 108.894531 104.304688 108.832031 C 104.179688 108.765625 104.03125 108.8125 103.964844 108.9375 "/>
<path style=" stroke:none;fill-rule:nonzero;fill:rgb(12.939453%,11.369324%,11.369324%);fill-opacity:1;" d="M 141.207031 49.425781 L 141.222656 49.421875 C 141.261719 49.421875 141.363281 49.414062 141.515625 49.414062 C 142.238281 49.414062 144.066406 49.546875 145.6875 50.6875 C 147.308594 51.832031 148.769531 53.976562 148.773438 58.144531 C 148.773438 59.390625 148.640625 60.8125 148.339844 62.441406 L 148.835938 62.53125 C 149.140625 60.878906 149.277344 59.425781 149.277344 58.144531 C 149.28125 53.859375 147.738281 51.511719 145.976562 50.277344 C 144.222656 49.046875 142.296875 48.914062 141.515625 48.910156 C 141.296875 48.910156 141.167969 48.921875 141.164062 48.921875 L 141.207031 49.425781 "/>
<path style=" stroke:none;fill-rule:nonzero;fill:rgb(12.939453%,11.369324%,11.369324%);fill-opacity:1;" d="M 118.863281 58.554688 C 118.851562 58.5625 117.277344 59.636719 115.699219 61.523438 C 114.121094 63.40625 112.527344 66.113281 112.523438 69.378906 C 112.523438 69.96875 112.578125 70.574219 112.691406 71.199219 L 113.183594 71.109375 C 113.074219 70.515625 113.027344 69.9375 113.027344 69.378906 C 113.023438 66.285156 114.546875 63.679688 116.082031 61.847656 C 116.851562 60.929688 117.617188 60.207031 118.195312 59.71875 C 118.484375 59.46875 118.722656 59.285156 118.890625 59.15625 C 118.972656 59.09375 119.039062 59.046875 119.082031 59.015625 L 119.148438 58.96875 L 118.863281 58.554688 "/>
<path style=" stroke:none;fill-rule:nonzero;fill:rgb(12.939453%,11.369324%,11.369324%);fill-opacity:1;" d="M 149.785156 112.351562 C 149.332031 111.152344 148.273438 110.214844 146.914062 109.988281 C 146.707031 109.957031 146.503906 109.9375 146.300781 109.9375 C 145.167969 109.9375 144.128906 110.457031 143.433594 111.296875 C 143.34375 111.402344 143.359375 111.558594 143.46875 111.652344 C 143.574219 111.738281 143.734375 111.722656 143.824219 111.617188 C 144.421875 110.890625 145.324219 110.441406 146.300781 110.441406 C 146.476562 110.441406 146.652344 110.457031 146.832031 110.488281 C 148.007812 110.679688 148.921875 111.488281 149.3125 112.53125 C 149.363281 112.660156 149.507812 112.726562 149.636719 112.675781 C 149.769531 112.628906 149.832031 112.484375 149.785156 112.351562 "/>
<path style=" stroke:none;fill-rule:nonzero;fill:rgb(12.939453%,11.369324%,11.369324%);fill-opacity:1;" d="M 167.601562 115.496094 C 167.148438 114.296875 166.089844 113.359375 164.734375 113.132812 C 164.527344 113.097656 164.320312 113.082031 164.117188 113.082031 C 162.988281 113.082031 161.945312 113.597656 161.253906 114.4375 C 161.164062 114.542969 161.179688 114.703125 161.285156 114.792969 C 161.394531 114.878906 161.550781 114.863281 161.640625 114.757812 C 162.238281 114.03125 163.144531 113.585938 164.117188 113.585938 C 164.292969 113.585938 164.46875 113.597656 164.652344 113.628906 C 165.824219 113.824219 166.738281 114.632812 167.128906 115.671875 C 167.179688 115.804688 167.324219 115.867188 167.453125 115.820312 C 167.585938 115.769531 167.652344 115.625 167.601562 115.496094 "/>
<path style=" stroke:none;fill-rule:nonzero;fill:rgb(12.939453%,11.369324%,11.369324%);fill-opacity:1;" d="M 176.4375 208.84375 L 186.695312 236.875 L 197.066406 236.898438 Z M 176.4375 208.84375 "/>
</g>
</svg>
