<?xml version="1.0" encoding="UTF-8"?>
<svg xmlns="http://www.w3.org/2000/svg" xmlns:xlink="http://www.w3.org/1999/xlink" width="469.5pt" height="312.749995pt" viewBox="0 0 469.5 312.749995" version="1.2">
<defs>
<clipPath id="clip1">
  <path d="M 0 0.0429688 L 469 0.0429688 L 469 312.457031 L 0 312.457031 Z M 0 0.0429688 "/>
</clipPath>
<clipPath id="clip2">
  <path d="M 39 37 L 399 37 L 399 304 L 39 304 Z M 39 37 "/>
</clipPath>
<clipPath id="clip3">
  <path d="M 363.578125 122.765625 C 366.003906 116.003906 367.214844 108.546875 367.042969 100.914062 C 366.695312 67.273438 339.492188 39.351562 306.046875 37.964844 C 286.292969 37.097656 268.269531 45.421875 255.964844 58.773438 C 244.703125 71.085938 225.988281 72.996094 211.953125 64.152344 C 193.0625 52.183594 170.535156 45.769531 146.277344 46.808594 C 88.746094 49.582031 42.128906 96.234375 39.359375 153.808594 C 36.238281 218.492188 87.878906 271.902344 151.820312 271.902344 C 170.363281 271.902344 188.039062 267.394531 203.460938 259.417969 C 218.710938 251.441406 237.25 255.601562 247.476562 269.476562 C 265.84375 294.445312 297.730469 308.839844 332.210938 301.902344 C 361.84375 296.007812 391.476562 266.179688 397.367188 236.351562 C 403.261719 205.65625 392.515625 177.042969 372.589844 158.316406 C 362.882812 149.472656 359.246094 135.425781 363.578125 122.765625 Z M 264.628906 152.59375 C 264.457031 152.765625 264.457031 152.765625 264.285156 152.941406 C 264.285156 152.765625 264.285156 152.59375 264.285156 152.246094 C 264.285156 152.417969 264.457031 152.59375 264.628906 152.59375 Z M 264.628906 152.59375 "/>
</clipPath>
<linearGradient id="linear0" gradientUnits="userSpaceOnUse" x1="-1.7" y1="96.306999" x2="210.100006" y2="96.306999" gradientTransform="matrix(1.73287,0,0,1.73416,39.18439,3.801892)">
<stop offset="0" style="stop-color:rgb(100%,24.299622%,53.69873%);stop-opacity:1;"/>
<stop offset="0.015625" style="stop-color:rgb(99.838257%,24.406433%,53.878784%);stop-opacity:1;"/>
<stop offset="0.0234375" style="stop-color:rgb(99.510193%,24.623108%,54.243469%);stop-opacity:1;"/>
<stop offset="0.03125" style="stop-color:rgb(99.177551%,24.842834%,54.612732%);stop-opacity:1;"/>
<stop offset="0.0390625" style="stop-color:rgb(98.84491%,25.061035%,54.983521%);stop-opacity:1;"/>
<stop offset="0.046875" style="stop-color:rgb(98.513794%,25.280762%,55.352783%);stop-opacity:1;"/>
<stop offset="0.0546875" style="stop-color:rgb(98.181152%,25.500488%,55.722046%);stop-opacity:1;"/>
<stop offset="0.0625" style="stop-color:rgb(97.848511%,25.720215%,56.091309%);stop-opacity:1;"/>
<stop offset="0.0703125" style="stop-color:rgb(97.517395%,25.939941%,56.462097%);stop-opacity:1;"/>
<stop offset="0.078125" style="stop-color:rgb(97.184753%,26.159668%,56.83136%);stop-opacity:1;"/>
<stop offset="0.0859375" style="stop-color:rgb(96.852112%,26.379395%,57.200623%);stop-opacity:1;"/>
<stop offset="0.09375" style="stop-color:rgb(96.520996%,26.599121%,57.569885%);stop-opacity:1;"/>
<stop offset="0.101563" style="stop-color:rgb(96.188354%,26.818848%,57.940674%);stop-opacity:1;"/>
<stop offset="0.109375" style="stop-color:rgb(95.855713%,27.037048%,58.309937%);stop-opacity:1;"/>
<stop offset="0.117188" style="stop-color:rgb(95.524597%,27.256775%,58.679199%);stop-opacity:1;"/>
<stop offset="0.125" style="stop-color:rgb(95.191956%,27.476501%,59.049988%);stop-opacity:1;"/>
<stop offset="0.132813" style="stop-color:rgb(94.859314%,27.696228%,59.41925%);stop-opacity:1;"/>
<stop offset="0.140625" style="stop-color:rgb(94.528198%,27.915955%,59.788513%);stop-opacity:1;"/>
<stop offset="0.148438" style="stop-color:rgb(94.195557%,28.135681%,60.157776%);stop-opacity:1;"/>
<stop offset="0.15625" style="stop-color:rgb(93.862915%,28.355408%,60.528564%);stop-opacity:1;"/>
<stop offset="0.164063" style="stop-color:rgb(93.531799%,28.575134%,60.897827%);stop-opacity:1;"/>
<stop offset="0.171875" style="stop-color:rgb(93.199158%,28.794861%,61.26709%);stop-opacity:1;"/>
<stop offset="0.179688" style="stop-color:rgb(92.866516%,29.014587%,61.636353%);stop-opacity:1;"/>
<stop offset="0.1875" style="stop-color:rgb(92.5354%,29.232788%,62.007141%);stop-opacity:1;"/>
<stop offset="0.195313" style="stop-color:rgb(92.202759%,29.452515%,62.376404%);stop-opacity:1;"/>
<stop offset="0.203125" style="stop-color:rgb(91.870117%,29.672241%,62.745667%);stop-opacity:1;"/>
<stop offset="0.210938" style="stop-color:rgb(91.537476%,29.891968%,63.116455%);stop-opacity:1;"/>
<stop offset="0.21875" style="stop-color:rgb(91.20636%,30.111694%,63.485718%);stop-opacity:1;"/>
<stop offset="0.226563" style="stop-color:rgb(90.873718%,30.331421%,63.85498%);stop-opacity:1;"/>
<stop offset="0.234375" style="stop-color:rgb(90.541077%,30.551147%,64.224243%);stop-opacity:1;"/>
<stop offset="0.242188" style="stop-color:rgb(90.209961%,30.770874%,64.595032%);stop-opacity:1;"/>
<stop offset="0.25" style="stop-color:rgb(89.877319%,30.990601%,64.964294%);stop-opacity:1;"/>
<stop offset="0.257813" style="stop-color:rgb(89.544678%,31.210327%,65.333557%);stop-opacity:1;"/>
<stop offset="0.265625" style="stop-color:rgb(89.213562%,31.428528%,65.70282%);stop-opacity:1;"/>
<stop offset="0.273438" style="stop-color:rgb(88.88092%,31.648254%,66.073608%);stop-opacity:1;"/>
<stop offset="0.28125" style="stop-color:rgb(88.548279%,31.867981%,66.442871%);stop-opacity:1;"/>
<stop offset="0.289063" style="stop-color:rgb(88.217163%,32.087708%,66.812134%);stop-opacity:1;"/>
<stop offset="0.296875" style="stop-color:rgb(87.884521%,32.307434%,67.182922%);stop-opacity:1;"/>
<stop offset="0.304688" style="stop-color:rgb(87.55188%,32.527161%,67.552185%);stop-opacity:1;"/>
<stop offset="0.3125" style="stop-color:rgb(87.220764%,32.746887%,67.921448%);stop-opacity:1;"/>
<stop offset="0.320313" style="stop-color:rgb(86.888123%,32.966614%,68.29071%);stop-opacity:1;"/>
<stop offset="0.328125" style="stop-color:rgb(86.555481%,33.18634%,68.661499%);stop-opacity:1;"/>
<stop offset="0.335938" style="stop-color:rgb(86.224365%,33.406067%,69.030762%);stop-opacity:1;"/>
<stop offset="0.34375" style="stop-color:rgb(85.891724%,33.624268%,69.400024%);stop-opacity:1;"/>
<stop offset="0.351563" style="stop-color:rgb(85.559082%,33.843994%,69.769287%);stop-opacity:1;"/>
<stop offset="0.359375" style="stop-color:rgb(85.227966%,34.063721%,70.140076%);stop-opacity:1;"/>
<stop offset="0.367188" style="stop-color:rgb(84.895325%,34.283447%,70.509338%);stop-opacity:1;"/>
<stop offset="0.375" style="stop-color:rgb(84.562683%,34.503174%,70.878601%);stop-opacity:1;"/>
<stop offset="0.382813" style="stop-color:rgb(84.231567%,34.7229%,71.24939%);stop-opacity:1;"/>
<stop offset="0.390625" style="stop-color:rgb(83.898926%,34.942627%,71.618652%);stop-opacity:1;"/>
<stop offset="0.398438" style="stop-color:rgb(83.566284%,35.162354%,71.987915%);stop-opacity:1;"/>
<stop offset="0.40625" style="stop-color:rgb(83.233643%,35.38208%,72.357178%);stop-opacity:1;"/>
<stop offset="0.414063" style="stop-color:rgb(82.902527%,35.601807%,72.727966%);stop-opacity:1;"/>
<stop offset="0.421875" style="stop-color:rgb(82.569885%,35.820007%,73.097229%);stop-opacity:1;"/>
<stop offset="0.429688" style="stop-color:rgb(82.237244%,36.039734%,73.466492%);stop-opacity:1;"/>
<stop offset="0.4375" style="stop-color:rgb(81.906128%,36.25946%,73.835754%);stop-opacity:1;"/>
<stop offset="0.445313" style="stop-color:rgb(81.573486%,36.479187%,74.206543%);stop-opacity:1;"/>
<stop offset="0.453125" style="stop-color:rgb(81.240845%,36.698914%,74.575806%);stop-opacity:1;"/>
<stop offset="0.460938" style="stop-color:rgb(80.909729%,36.91864%,74.945068%);stop-opacity:1;"/>
<stop offset="0.46875" style="stop-color:rgb(80.577087%,37.138367%,75.315857%);stop-opacity:1;"/>
<stop offset="0.476563" style="stop-color:rgb(80.244446%,37.358093%,75.68512%);stop-opacity:1;"/>
<stop offset="0.484375" style="stop-color:rgb(79.91333%,37.57782%,76.054382%);stop-opacity:1;"/>
<stop offset="0.492188" style="stop-color:rgb(79.580688%,37.797546%,76.423645%);stop-opacity:1;"/>
<stop offset="0.5" style="stop-color:rgb(79.248047%,38.015747%,76.794434%);stop-opacity:1;"/>
<stop offset="0.507813" style="stop-color:rgb(78.916931%,38.235474%,77.163696%);stop-opacity:1;"/>
<stop offset="0.515625" style="stop-color:rgb(78.58429%,38.4552%,77.532959%);stop-opacity:1;"/>
<stop offset="0.523438" style="stop-color:rgb(78.251648%,38.674927%,77.902222%);stop-opacity:1;"/>
<stop offset="0.53125" style="stop-color:rgb(77.920532%,38.894653%,78.27301%);stop-opacity:1;"/>
<stop offset="0.539063" style="stop-color:rgb(77.587891%,39.11438%,78.642273%);stop-opacity:1;"/>
<stop offset="0.546875" style="stop-color:rgb(77.255249%,39.334106%,79.011536%);stop-opacity:1;"/>
<stop offset="0.554688" style="stop-color:rgb(76.924133%,39.553833%,79.382324%);stop-opacity:1;"/>
<stop offset="0.5625" style="stop-color:rgb(76.591492%,39.77356%,79.751587%);stop-opacity:1;"/>
<stop offset="0.570312" style="stop-color:rgb(76.25885%,39.993286%,80.12085%);stop-opacity:1;"/>
<stop offset="0.578125" style="stop-color:rgb(75.927734%,40.211487%,80.490112%);stop-opacity:1;"/>
<stop offset="0.585938" style="stop-color:rgb(75.595093%,40.431213%,80.860901%);stop-opacity:1;"/>
<stop offset="0.59375" style="stop-color:rgb(75.262451%,40.65094%,81.230164%);stop-opacity:1;"/>
<stop offset="0.601563" style="stop-color:rgb(74.92981%,40.870667%,81.599426%);stop-opacity:1;"/>
<stop offset="0.609375" style="stop-color:rgb(74.598694%,41.090393%,81.968689%);stop-opacity:1;"/>
<stop offset="0.617188" style="stop-color:rgb(74.266052%,41.31012%,82.339478%);stop-opacity:1;"/>
<stop offset="0.625" style="stop-color:rgb(73.933411%,41.529846%,82.70874%);stop-opacity:1;"/>
<stop offset="0.632813" style="stop-color:rgb(73.602295%,41.749573%,83.078003%);stop-opacity:1;"/>
<stop offset="0.640625" style="stop-color:rgb(73.269653%,41.969299%,83.448792%);stop-opacity:1;"/>
<stop offset="0.648438" style="stop-color:rgb(72.937012%,42.189026%,83.818054%);stop-opacity:1;"/>
<stop offset="0.65625" style="stop-color:rgb(72.605896%,42.407227%,84.187317%);stop-opacity:1;"/>
<stop offset="0.664062" style="stop-color:rgb(72.273254%,42.626953%,84.55658%);stop-opacity:1;"/>
<stop offset="0.671875" style="stop-color:rgb(71.940613%,42.84668%,84.927368%);stop-opacity:1;"/>
<stop offset="0.679688" style="stop-color:rgb(71.609497%,43.066406%,85.296631%);stop-opacity:1;"/>
<stop offset="0.6875" style="stop-color:rgb(71.276855%,43.286133%,85.665894%);stop-opacity:1;"/>
<stop offset="0.695313" style="stop-color:rgb(70.944214%,43.505859%,86.035156%);stop-opacity:1;"/>
<stop offset="0.703125" style="stop-color:rgb(70.613098%,43.725586%,86.405945%);stop-opacity:1;"/>
<stop offset="0.710938" style="stop-color:rgb(70.280457%,43.945312%,86.775208%);stop-opacity:1;"/>
<stop offset="0.71875" style="stop-color:rgb(69.947815%,44.165039%,87.14447%);stop-opacity:1;"/>
<stop offset="0.726563" style="stop-color:rgb(69.616699%,44.384766%,87.515259%);stop-opacity:1;"/>
<stop offset="0.734375" style="stop-color:rgb(69.284058%,44.602966%,87.884521%);stop-opacity:1;"/>
<stop offset="0.742188" style="stop-color:rgb(68.951416%,44.822693%,88.253784%);stop-opacity:1;"/>
<stop offset="0.75" style="stop-color:rgb(68.6203%,45.042419%,88.623047%);stop-opacity:1;"/>
<stop offset="0.757813" style="stop-color:rgb(68.287659%,45.262146%,88.993835%);stop-opacity:1;"/>
<stop offset="0.765625" style="stop-color:rgb(67.955017%,45.481873%,89.363098%);stop-opacity:1;"/>
<stop offset="0.773438" style="stop-color:rgb(67.623901%,45.701599%,89.732361%);stop-opacity:1;"/>
<stop offset="0.78125" style="stop-color:rgb(67.29126%,45.921326%,90.103149%);stop-opacity:1;"/>
<stop offset="0.789063" style="stop-color:rgb(66.958618%,46.141052%,90.472412%);stop-opacity:1;"/>
<stop offset="0.796875" style="stop-color:rgb(66.625977%,46.360779%,90.841675%);stop-opacity:1;"/>
<stop offset="0.804688" style="stop-color:rgb(66.294861%,46.580505%,91.210938%);stop-opacity:1;"/>
<stop offset="0.8125" style="stop-color:rgb(65.962219%,46.798706%,91.581726%);stop-opacity:1;"/>
<stop offset="0.820312" style="stop-color:rgb(65.629578%,47.018433%,91.950989%);stop-opacity:1;"/>
<stop offset="0.828125" style="stop-color:rgb(65.298462%,47.238159%,92.320251%);stop-opacity:1;"/>
<stop offset="0.835938" style="stop-color:rgb(64.96582%,47.457886%,92.689514%);stop-opacity:1;"/>
<stop offset="0.84375" style="stop-color:rgb(64.633179%,47.677612%,93.060303%);stop-opacity:1;"/>
<stop offset="0.851563" style="stop-color:rgb(64.302063%,47.897339%,93.429565%);stop-opacity:1;"/>
<stop offset="0.859375" style="stop-color:rgb(63.969421%,48.117065%,93.798828%);stop-opacity:1;"/>
<stop offset="0.867188" style="stop-color:rgb(63.63678%,48.336792%,94.169617%);stop-opacity:1;"/>
<stop offset="0.875" style="stop-color:rgb(63.305664%,48.556519%,94.538879%);stop-opacity:1;"/>
<stop offset="0.882813" style="stop-color:rgb(62.973022%,48.774719%,94.908142%);stop-opacity:1;"/>
<stop offset="0.890625" style="stop-color:rgb(62.640381%,48.994446%,95.277405%);stop-opacity:1;"/>
<stop offset="0.898438" style="stop-color:rgb(62.309265%,49.214172%,95.648193%);stop-opacity:1;"/>
<stop offset="0.90625" style="stop-color:rgb(61.976624%,49.433899%,96.017456%);stop-opacity:1;"/>
<stop offset="0.914062" style="stop-color:rgb(61.643982%,49.653625%,96.386719%);stop-opacity:1;"/>
<stop offset="0.921875" style="stop-color:rgb(61.312866%,49.873352%,96.755981%);stop-opacity:1;"/>
<stop offset="0.929688" style="stop-color:rgb(60.980225%,50.093079%,97.12677%);stop-opacity:1;"/>
<stop offset="0.9375" style="stop-color:rgb(60.647583%,50.312805%,97.496033%);stop-opacity:1;"/>
<stop offset="0.945313" style="stop-color:rgb(60.316467%,50.532532%,97.865295%);stop-opacity:1;"/>
<stop offset="0.953125" style="stop-color:rgb(59.983826%,50.752258%,98.236084%);stop-opacity:1;"/>
<stop offset="0.960938" style="stop-color:rgb(59.651184%,50.970459%,98.605347%);stop-opacity:1;"/>
<stop offset="0.96875" style="stop-color:rgb(59.320068%,51.190186%,98.974609%);stop-opacity:1;"/>
<stop offset="0.976563" style="stop-color:rgb(58.987427%,51.409912%,99.343872%);stop-opacity:1;"/>
<stop offset="0.984375" style="stop-color:rgb(58.654785%,51.629639%,99.714661%);stop-opacity:1;"/>
<stop offset="1" style="stop-color:rgb(58.444214%,51.768494%,99.949646%);stop-opacity:1;"/>
</linearGradient>
<clipPath id="clip4">
  <path d="M 206 3.742188 L 240 3.742188 L 240 37 L 206 37 Z M 206 3.742188 "/>
</clipPath>
<clipPath id="clip5">
  <path d="M 239.332031 20.277344 C 239.332031 20.816406 239.304688 21.355469 239.25 21.890625 C 239.199219 22.429688 239.121094 22.960938 239.015625 23.492188 C 238.910156 24.019531 238.777344 24.542969 238.621094 25.058594 C 238.464844 25.574219 238.285156 26.082031 238.078125 26.582031 C 237.871094 27.078125 237.640625 27.566406 237.386719 28.042969 C 237.132812 28.519531 236.855469 28.980469 236.554688 29.429688 C 236.257812 29.878906 235.9375 30.3125 235.59375 30.726562 C 235.253906 31.144531 234.890625 31.542969 234.507812 31.925781 C 234.128906 32.308594 233.730469 32.667969 233.3125 33.011719 C 232.894531 33.355469 232.460938 33.675781 232.015625 33.972656 C 231.566406 34.273438 231.105469 34.550781 230.628906 34.804688 C 230.152344 35.058594 229.667969 35.289062 229.167969 35.496094 C 228.671875 35.703125 228.164062 35.886719 227.648438 36.042969 C 227.132812 36.199219 226.609375 36.328125 226.082031 36.433594 C 225.550781 36.539062 225.019531 36.617188 224.480469 36.671875 C 223.945312 36.722656 223.40625 36.75 222.867188 36.75 C 222.328125 36.75 221.792969 36.722656 221.253906 36.671875 C 220.71875 36.617188 220.1875 36.539062 219.65625 36.433594 C 219.128906 36.328125 218.605469 36.199219 218.089844 36.042969 C 217.574219 35.886719 217.066406 35.703125 216.570312 35.496094 C 216.070312 35.289062 215.582031 35.058594 215.109375 34.804688 C 214.632812 34.550781 214.171875 34.273438 213.722656 33.972656 C 213.273438 33.675781 212.84375 33.355469 212.425781 33.011719 C 212.007812 32.667969 211.609375 32.308594 211.226562 31.925781 C 210.847656 31.542969 210.484375 31.144531 210.144531 30.726562 C 209.800781 30.3125 209.480469 29.878906 209.179688 29.429688 C 208.882812 28.980469 208.605469 28.519531 208.351562 28.042969 C 208.097656 27.566406 207.867188 27.078125 207.660156 26.582031 C 207.453125 26.082031 207.273438 25.574219 207.113281 25.058594 C 206.957031 24.542969 206.828125 24.019531 206.722656 23.492188 C 206.617188 22.960938 206.539062 22.429688 206.484375 21.890625 C 206.433594 21.355469 206.40625 20.816406 206.40625 20.277344 C 206.40625 19.738281 206.433594 19.199219 206.484375 18.660156 C 206.539062 18.125 206.617188 17.589844 206.722656 17.0625 C 206.828125 16.53125 206.957031 16.011719 207.113281 15.492188 C 207.273438 14.976562 207.453125 14.46875 207.660156 13.972656 C 207.867188 13.472656 208.097656 12.984375 208.351562 12.511719 C 208.605469 12.035156 208.882812 11.574219 209.179688 11.125 C 209.480469 10.675781 209.800781 10.242188 210.144531 9.824219 C 210.484375 9.40625 210.847656 9.007812 211.226562 8.628906 C 211.609375 8.246094 212.007812 7.882812 212.425781 7.542969 C 212.84375 7.199219 213.273438 6.878906 213.722656 6.578125 C 214.171875 6.277344 214.632812 6 215.109375 5.746094 C 215.582031 5.492188 216.070312 5.261719 216.570312 5.054688 C 217.066406 4.847656 217.574219 4.667969 218.089844 4.511719 C 218.605469 4.355469 219.128906 4.222656 219.65625 4.117188 C 220.1875 4.011719 220.71875 3.933594 221.253906 3.882812 C 221.792969 3.828125 222.328125 3.800781 222.867188 3.800781 C 223.40625 3.800781 223.945312 3.828125 224.480469 3.882812 C 225.019531 3.933594 225.550781 4.011719 226.082031 4.117188 C 226.609375 4.222656 227.132812 4.355469 227.648438 4.511719 C 228.164062 4.667969 228.671875 4.847656 229.167969 5.054688 C 229.667969 5.261719 230.152344 5.492188 230.628906 5.746094 C 231.105469 6 231.566406 6.277344 232.015625 6.578125 C 232.460938 6.878906 232.894531 7.199219 233.3125 7.542969 C 233.730469 7.882812 234.128906 8.246094 234.507812 8.628906 C 234.890625 9.007812 235.253906 9.40625 235.59375 9.824219 C 235.9375 10.242188 236.257812 10.675781 236.554688 11.125 C 236.855469 11.574219 237.132812 12.035156 237.386719 12.511719 C 237.640625 12.984375 237.871094 13.472656 238.078125 13.972656 C 238.285156 14.46875 238.464844 14.976562 238.621094 15.492188 C 238.777344 16.011719 238.910156 16.53125 239.015625 17.0625 C 239.121094 17.589844 239.199219 18.125 239.25 18.660156 C 239.304688 19.199219 239.332031 19.738281 239.332031 20.277344 Z M 239.332031 20.277344 "/>
</clipPath>
<linearGradient id="linear1" gradientUnits="userSpaceOnUse" x1="96.499998" y1="96.306999" x2="115.500005" y2="96.306999" gradientTransform="matrix(1.73287,0,0,1.73416,39.18439,3.801892)">
<stop offset="0" style="stop-color:rgb(80.628967%,37.104797%,75.259399%);stop-opacity:1;"/>
<stop offset="0.0625" style="stop-color:rgb(80.508423%,37.182617%,75.390625%);stop-opacity:1;"/>
<stop offset="0.125" style="stop-color:rgb(80.270386%,37.339783%,75.656128%);stop-opacity:1;"/>
<stop offset="0.1875" style="stop-color:rgb(80.032349%,37.498474%,75.921631%);stop-opacity:1;"/>
<stop offset="0.25" style="stop-color:rgb(79.794312%,37.65564%,76.187134%);stop-opacity:1;"/>
<stop offset="0.3125" style="stop-color:rgb(79.554749%,37.812805%,76.452637%);stop-opacity:1;"/>
<stop offset="0.375" style="stop-color:rgb(79.316711%,37.969971%,76.71814%);stop-opacity:1;"/>
<stop offset="0.4375" style="stop-color:rgb(79.078674%,38.128662%,76.983643%);stop-opacity:1;"/>
<stop offset="0.5" style="stop-color:rgb(78.840637%,38.285828%,77.24762%);stop-opacity:1;"/>
<stop offset="0.5625" style="stop-color:rgb(78.6026%,38.442993%,77.513123%);stop-opacity:1;"/>
<stop offset="0.625" style="stop-color:rgb(78.363037%,38.601685%,77.778625%);stop-opacity:1;"/>
<stop offset="0.6875" style="stop-color:rgb(78.125%,38.75885%,78.044128%);stop-opacity:1;"/>
<stop offset="0.75" style="stop-color:rgb(77.886963%,38.916016%,78.309631%);stop-opacity:1;"/>
<stop offset="0.8125" style="stop-color:rgb(77.648926%,39.073181%,78.575134%);stop-opacity:1;"/>
<stop offset="0.875" style="stop-color:rgb(77.410889%,39.231873%,78.840637%);stop-opacity:1;"/>
<stop offset="0.9375" style="stop-color:rgb(77.171326%,39.389038%,79.10614%);stop-opacity:1;"/>
<stop offset="1" style="stop-color:rgb(76.933289%,39.546204%,79.370117%);stop-opacity:1;"/>
</linearGradient>
<clipPath id="clip6">
  <path d="M 206 274 L 228 274 L 228 297 L 206 297 Z M 206 274 "/>
</clipPath>
<clipPath id="clip7">
  <path d="M 227.71875 285.429688 C 227.71875 286.125 227.652344 286.8125 227.515625 287.492188 C 227.382812 288.175781 227.179688 288.835938 226.914062 289.476562 C 226.648438 290.121094 226.324219 290.730469 225.9375 291.304688 C 225.554688 291.882812 225.117188 292.417969 224.625 292.910156 C 224.132812 293.402344 223.601562 293.839844 223.023438 294.226562 C 222.445312 294.609375 221.835938 294.9375 221.195312 295.203125 C 220.554688 295.46875 219.894531 295.667969 219.210938 295.804688 C 218.53125 295.941406 217.84375 296.007812 217.148438 296.007812 C 216.457031 296.007812 215.769531 295.941406 215.089844 295.804688 C 214.40625 295.667969 213.746094 295.46875 213.105469 295.203125 C 212.464844 294.9375 211.855469 294.609375 211.277344 294.226562 C 210.699219 293.839844 210.167969 293.402344 209.675781 292.910156 C 209.183594 292.417969 208.746094 291.882812 208.359375 291.304688 C 207.976562 290.730469 207.648438 290.121094 207.382812 289.476562 C 207.117188 288.835938 206.917969 288.175781 206.78125 287.492188 C 206.648438 286.8125 206.578125 286.125 206.578125 285.429688 C 206.578125 284.734375 206.648438 284.046875 206.78125 283.367188 C 206.917969 282.683594 207.117188 282.023438 207.382812 281.382812 C 207.648438 280.738281 207.976562 280.128906 208.359375 279.550781 C 208.746094 278.976562 209.183594 278.441406 209.675781 277.949219 C 210.167969 277.457031 210.699219 277.019531 211.277344 276.632812 C 211.855469 276.246094 212.464844 275.921875 213.105469 275.65625 C 213.746094 275.390625 214.40625 275.191406 215.089844 275.054688 C 215.769531 274.917969 216.457031 274.851562 217.148438 274.851562 C 217.84375 274.851562 218.53125 274.917969 219.210938 275.054688 C 219.894531 275.191406 220.554688 275.390625 221.195312 275.65625 C 221.835938 275.921875 222.445312 276.246094 223.023438 276.632812 C 223.601562 277.019531 224.132812 277.457031 224.625 277.949219 C 225.117188 278.441406 225.554688 278.976562 225.9375 279.550781 C 226.324219 280.128906 226.648438 280.738281 226.914062 281.382812 C 227.179688 282.023438 227.382812 282.683594 227.515625 283.367188 C 227.652344 284.046875 227.71875 284.734375 227.71875 285.429688 Z M 227.71875 285.429688 "/>
</clipPath>
<linearGradient id="linear2" gradientUnits="userSpaceOnUse" x1="96.599989" y1="96.306999" x2="108.799993" y2="96.306999" gradientTransform="matrix(1.73287,0,0,1.73416,39.18439,3.801892)">
<stop offset="0" style="stop-color:rgb(80.607605%,37.11853%,75.280762%);stop-opacity:1;"/>
<stop offset="0.125" style="stop-color:rgb(80.455017%,37.219238%,75.450134%);stop-opacity:1;"/>
<stop offset="0.25" style="stop-color:rgb(80.148315%,37.420654%,75.791931%);stop-opacity:1;"/>
<stop offset="0.375" style="stop-color:rgb(79.84314%,37.623596%,76.132202%);stop-opacity:1;"/>
<stop offset="0.5" style="stop-color:rgb(79.536438%,37.825012%,76.472473%);stop-opacity:1;"/>
<stop offset="0.625" style="stop-color:rgb(79.229736%,38.027954%,76.81427%);stop-opacity:1;"/>
<stop offset="0.75" style="stop-color:rgb(78.924561%,38.230896%,77.154541%);stop-opacity:1;"/>
<stop offset="0.875" style="stop-color:rgb(78.617859%,38.432312%,77.494812%);stop-opacity:1;"/>
<stop offset="1" style="stop-color:rgb(78.311157%,38.635254%,77.835083%);stop-opacity:1;"/>
</linearGradient>
<clipPath id="clip8">
  <path d="M 377 97 L 432.71875 97 L 432.71875 153 L 377 153 Z M 377 97 "/>
</clipPath>
<clipPath id="clip9">
  <path d="M 432.71875 125.191406 C 432.71875 126.101562 432.675781 127.007812 432.585938 127.914062 C 432.496094 128.816406 432.363281 129.714844 432.1875 130.605469 C 432.007812 131.496094 431.789062 132.378906 431.523438 133.246094 C 431.261719 134.117188 430.957031 134.972656 430.609375 135.8125 C 430.261719 136.652344 429.875 137.472656 429.445312 138.273438 C 429.015625 139.074219 428.550781 139.851562 428.046875 140.609375 C 427.542969 141.363281 427 142.09375 426.425781 142.796875 C 425.847656 143.496094 425.242188 144.171875 424.597656 144.8125 C 423.957031 145.457031 423.285156 146.066406 422.582031 146.640625 C 421.878906 147.21875 421.152344 147.757812 420.398438 148.261719 C 419.640625 148.769531 418.863281 149.234375 418.0625 149.664062 C 417.261719 150.089844 416.441406 150.480469 415.601562 150.828125 C 414.765625 151.175781 413.910156 151.480469 413.042969 151.746094 C 412.171875 152.007812 411.292969 152.230469 410.402344 152.40625 C 409.511719 152.582031 408.613281 152.71875 407.710938 152.804688 C 406.808594 152.894531 405.902344 152.941406 404.992188 152.941406 C 404.085938 152.941406 403.179688 152.894531 402.277344 152.804688 C 401.371094 152.71875 400.476562 152.582031 399.585938 152.40625 C 398.695312 152.230469 397.8125 152.007812 396.945312 151.746094 C 396.074219 151.480469 395.222656 151.175781 394.382812 150.828125 C 393.542969 150.480469 392.722656 150.089844 391.921875 149.664062 C 391.121094 149.234375 390.34375 148.769531 389.589844 148.261719 C 388.835938 147.757812 388.105469 147.21875 387.402344 146.640625 C 386.703125 146.066406 386.03125 145.457031 385.386719 144.8125 C 384.746094 144.171875 384.136719 143.496094 383.5625 142.796875 C 382.984375 142.09375 382.445312 141.363281 381.941406 140.609375 C 381.433594 139.851562 380.96875 139.074219 380.542969 138.273438 C 380.113281 137.472656 379.726562 136.652344 379.378906 135.8125 C 379.03125 134.972656 378.726562 134.117188 378.460938 133.246094 C 378.199219 132.378906 377.976562 131.496094 377.800781 130.605469 C 377.621094 129.714844 377.488281 128.816406 377.402344 127.914062 C 377.3125 127.007812 377.265625 126.101562 377.265625 125.191406 C 377.265625 124.285156 377.3125 123.378906 377.402344 122.472656 C 377.488281 121.570312 377.621094 120.671875 377.800781 119.78125 C 377.976562 118.890625 378.199219 118.007812 378.460938 117.136719 C 378.726562 116.269531 379.03125 115.414062 379.378906 114.574219 C 379.726562 113.734375 380.113281 112.914062 380.542969 112.113281 C 380.96875 111.3125 381.433594 110.535156 381.941406 109.777344 C 382.445312 109.023438 382.984375 108.292969 383.5625 107.589844 C 384.136719 106.886719 384.746094 106.214844 385.386719 105.574219 C 386.03125 104.929688 386.703125 104.320312 387.402344 103.746094 C 388.105469 103.167969 388.835938 102.628906 389.589844 102.121094 C 390.34375 101.617188 391.121094 101.152344 391.921875 100.722656 C 392.722656 100.292969 393.542969 99.90625 394.382812 99.558594 C 395.222656 99.210938 396.074219 98.90625 396.945312 98.640625 C 397.8125 98.378906 398.695312 98.15625 399.585938 97.980469 C 400.476562 97.800781 401.371094 97.667969 402.277344 97.582031 C 403.179688 97.492188 404.085938 97.445312 404.992188 97.445312 C 405.902344 97.445312 406.808594 97.492188 407.710938 97.582031 C 408.613281 97.667969 409.511719 97.800781 410.402344 97.980469 C 411.292969 98.15625 412.171875 98.378906 413.042969 98.640625 C 413.910156 98.90625 414.765625 99.210938 415.601562 99.558594 C 416.441406 99.90625 417.261719 100.292969 418.0625 100.722656 C 418.863281 101.152344 419.640625 101.617188 420.398438 102.121094 C 421.152344 102.628906 421.878906 103.167969 422.582031 103.746094 C 423.285156 104.320312 423.957031 104.929688 424.597656 105.574219 C 425.242188 106.214844 425.847656 106.886719 426.425781 107.589844 C 427 108.292969 427.542969 109.023438 428.046875 109.777344 C 428.550781 110.535156 429.015625 111.3125 429.445312 112.113281 C 429.875 112.914062 430.261719 113.734375 430.609375 114.574219 C 430.957031 115.414062 431.261719 116.269531 431.523438 117.136719 C 431.789062 118.007812 432.007812 118.890625 432.1875 119.78125 C 432.363281 120.671875 432.496094 121.570312 432.585938 122.472656 C 432.675781 123.378906 432.71875 124.285156 432.71875 125.191406 Z M 432.71875 125.191406 "/>
</clipPath>
<linearGradient id="linear3" gradientUnits="userSpaceOnUse" x1="195.100006" y1="96.306999" x2="227.099996" y2="96.306999" gradientTransform="matrix(1.73287,0,0,1.73416,39.18439,3.801892)">
<stop offset="0" style="stop-color:rgb(60.835266%,50.189209%,97.286987%);stop-opacity:1;"/>
<stop offset="0.03125" style="stop-color:rgb(60.734558%,50.254822%,97.398376%);stop-opacity:1;"/>
<stop offset="0.0625" style="stop-color:rgb(60.534668%,50.386047%,97.622681%);stop-opacity:1;"/>
<stop offset="0.09375" style="stop-color:rgb(60.333252%,50.518799%,97.845459%);stop-opacity:1;"/>
<stop offset="0.125" style="stop-color:rgb(60.133362%,50.65155%,98.068237%);stop-opacity:1;"/>
<stop offset="0.15625" style="stop-color:rgb(59.931946%,50.784302%,98.292542%);stop-opacity:1;"/>
<stop offset="0.1875" style="stop-color:rgb(59.732056%,50.917053%,98.51532%);stop-opacity:1;"/>
<stop offset="0.21875" style="stop-color:rgb(59.53064%,51.049805%,98.739624%);stop-opacity:1;"/>
<stop offset="0.25" style="stop-color:rgb(59.33075%,51.182556%,98.962402%);stop-opacity:1;"/>
<stop offset="0.28125" style="stop-color:rgb(59.129333%,51.315308%,99.186707%);stop-opacity:1;"/>
<stop offset="0.3125" style="stop-color:rgb(58.927917%,51.448059%,99.409485%);stop-opacity:1;"/>
<stop offset="0.34375" style="stop-color:rgb(58.728027%,51.580811%,99.632263%);stop-opacity:1;"/>
<stop offset="0.375" style="stop-color:rgb(58.526611%,51.713562%,99.856567%);stop-opacity:1;"/>
<stop offset="0.5" style="stop-color:rgb(58.413696%,51.789856%,99.983215%);stop-opacity:1;"/>
<stop offset="1" style="stop-color:rgb(58.399963%,51.799011%,100%);stop-opacity:1;"/>
</linearGradient>
<clipPath id="clip10">
  <path d="M 215 142 L 308 142 L 308 239.921875 L 215 239.921875 Z M 215 142 "/>
</clipPath>
<clipPath id="clip11">
  <path d="M 138 123 L 256 123 L 256 239.921875 L 138 239.921875 Z M 138 123 "/>
</clipPath>
<clipPath id="clip12">
  <path d="M 112 150 L 184 150 L 184 239.921875 L 112 239.921875 Z M 112 150 "/>
</clipPath>
<clipPath id="clip13">
  <path d="M 109.007812 122 L 180 122 L 180 194 L 109.007812 194 Z M 109.007812 122 "/>
</clipPath>
<clipPath id="clip14">
  <path d="M 307 219 L 355 219 L 355 239.921875 L 307 239.921875 Z M 307 219 "/>
</clipPath>
<clipPath id="clip15">
  <path d="M 332.050781 224.75 L 350.589844 224.75 L 350.589844 239.921875 L 332.050781 239.921875 Z M 332.050781 224.75 "/>
</clipPath>
<clipPath id="clip16">
  <path d="M 326.035156 228.757812 L 341.570312 228.757812 L 341.570312 239.921875 L 326.035156 239.921875 Z M 326.035156 228.757812 "/>
</clipPath>
<clipPath id="clip17">
  <path d="M 198 163 L 330 163 L 330 239.921875 L 198 239.921875 Z M 198 163 "/>
</clipPath>
<clipPath id="clip18">
  <path d="M 202.261719 165.675781 L 329.542969 165.675781 L 329.542969 239.921875 L 202.261719 239.921875 Z M 202.261719 165.675781 "/>
</clipPath>
<clipPath id="clip19">
  <path d="M 212 211 L 339 211 L 339 239.921875 L 212 239.921875 Z M 212 211 "/>
</clipPath>
<clipPath id="clip20">
  <path d="M 130 132 L 187 132 L 187 239.921875 L 130 239.921875 Z M 130 132 "/>
</clipPath>
<clipPath id="clip21">
  <path d="M 120.078125 239.269531 L 360.097656 239.269531 L 360.097656 239.921875 L 120.078125 239.921875 Z M 120.078125 239.269531 "/>
</clipPath>
<clipPath id="clip22">
  <path d="M 212 211 L 233 211 L 233 239.921875 L 212 239.921875 Z M 212 211 "/>
</clipPath>
</defs>
<g id="surface1">
<g clip-path="url(#clip1)" clip-rule="nonzero">
<path style=" stroke:none;fill-rule:nonzero;fill:rgb(100%,100%,100%);fill-opacity:1;" d="M 0 0.0429688 L 469.5 0.0429688 L 469.5 320.292969 L 0 320.292969 Z M 0 0.0429688 "/>
<path style=" stroke:none;fill-rule:nonzero;fill:rgb(100%,100%,100%);fill-opacity:1;" d="M 0 0.0429688 L 469.5 0.0429688 L 469.5 312.792969 L 0 312.792969 Z M 0 0.0429688 "/>
<path style=" stroke:none;fill-rule:nonzero;fill:rgb(100%,100%,100%);fill-opacity:1;" d="M 0 0.0429688 L 469.5 0.0429688 L 469.5 312.792969 L 0 312.792969 Z M 0 0.0429688 "/>
</g>
<g clip-path="url(#clip2)" clip-rule="nonzero">
<g clip-path="url(#clip3)" clip-rule="nonzero">
<path style=" stroke:none;fill-rule:nonzero;fill:url(#linear0);" d="M 36.238281 37.097656 L 36.238281 308.839844 L 403.261719 308.839844 L 403.261719 37.097656 Z M 36.238281 37.097656 "/>
</g>
</g>
<g clip-path="url(#clip4)" clip-rule="nonzero">
<g clip-path="url(#clip5)" clip-rule="nonzero">
<path style=" stroke:none;fill-rule:nonzero;fill:url(#linear1);" d="M 206.40625 3.800781 L 206.40625 36.75 L 239.332031 36.75 L 239.332031 3.800781 Z M 206.40625 3.800781 "/>
</g>
</g>
<g clip-path="url(#clip6)" clip-rule="nonzero">
<g clip-path="url(#clip7)" clip-rule="nonzero">
<path style=" stroke:none;fill-rule:nonzero;fill:url(#linear2);" d="M 206.578125 274.851562 L 206.578125 296.007812 L 227.71875 296.007812 L 227.71875 274.851562 Z M 206.578125 274.851562 "/>
</g>
</g>
<g clip-path="url(#clip8)" clip-rule="nonzero">
<g clip-path="url(#clip9)" clip-rule="nonzero">
<path style=" stroke:none;fill-rule:nonzero;fill:url(#linear3);" d="M 377.265625 97.445312 L 377.265625 152.941406 L 432.71875 152.941406 L 432.71875 97.445312 Z M 377.265625 97.445312 "/>
</g>
</g>
<path style=" stroke:none;fill-rule:nonzero;fill:rgb(12.939453%,11.369324%,11.369324%);fill-opacity:1;" d="M 154.980469 80.664062 C 154.964844 80.667969 151.648438 81.226562 148.308594 83.09375 C 146.636719 84.023438 144.960938 85.285156 143.699219 86.976562 C 142.429688 88.667969 141.585938 90.792969 141.585938 93.417969 C 141.585938 94.210938 141.664062 95.050781 141.832031 95.941406 C 141.855469 96.078125 141.988281 96.167969 142.121094 96.140625 C 142.257812 96.117188 142.347656 95.984375 142.324219 95.851562 C 142.164062 94.988281 142.089844 94.179688 142.089844 93.417969 C 142.089844 90.902344 142.890625 88.894531 144.097656 87.277344 C 145.910156 84.851562 148.652344 83.3125 150.945312 82.390625 C 152.089844 81.929688 153.125 81.621094 153.871094 81.425781 C 154.242188 81.332031 154.542969 81.265625 154.75 81.222656 C 154.851562 81.199219 154.933594 81.183594 154.984375 81.171875 C 155.039062 81.164062 155.066406 81.160156 155.066406 81.160156 C 155.203125 81.136719 155.292969 81.007812 155.269531 80.871094 C 155.246094 80.734375 155.117188 80.644531 154.980469 80.667969 "/>
<g clip-path="url(#clip10)" clip-rule="nonzero">
<path style=" stroke:none;fill-rule:nonzero;fill:rgb(97.648621%,69.018555%,19.999695%);fill-opacity:1;" d="M 223.660156 142.96875 C 226.265625 143.65625 250.8125 147.902344 266.351562 173.109375 C 276.667969 189.84375 307.304688 239.625 307.304688 239.625 L 237.464844 239.625 C 237.464844 239.625 199.890625 136.722656 223.660156 142.96875 "/>
</g>
<g clip-path="url(#clip11)" clip-rule="nonzero">
<path style=" stroke:none;fill-rule:nonzero;fill:rgb(97.648621%,69.018555%,19.999695%);fill-opacity:1;" d="M 146.972656 123.796875 L 223.660156 142.96875 L 255.75 239.648438 L 138.921875 239.648438 L 146.972656 123.796875 "/>
</g>
<path style=" stroke:none;fill-rule:nonzero;fill:rgb(12.939453%,11.369324%,11.369324%);fill-opacity:1;" d="M 220.273438 142.339844 L 220.296875 142.375 C 220.5625 142.734375 222.714844 145.859375 222.710938 149.664062 C 222.710938 151.152344 222.386719 152.742188 221.496094 154.332031 C 220.605469 155.921875 219.144531 157.515625 216.855469 158.988281 C 216.753906 159.050781 216.714844 159.179688 216.757812 159.289062 C 216.757812 159.289062 216.773438 159.328125 216.800781 159.410156 C 217.003906 159.96875 217.824219 162.457031 217.824219 165.457031 C 217.824219 167.777344 217.335938 170.390625 215.722656 172.695312 C 214.113281 174.996094 211.371094 177.003906 206.785156 178.085938 C 206.6875 178.109375 206.613281 178.1875 206.597656 178.289062 L 206.589844 178.324219 C 206.511719 178.730469 205.726562 182.347656 202.5625 185.851562 C 199.402344 189.355469 193.871094 192.761719 184.203125 192.765625 C 183.445312 192.765625 182.664062 192.746094 181.855469 192.703125 C 181.714844 192.695312 181.597656 192.800781 181.589844 192.9375 C 181.582031 193.078125 181.6875 193.195312 181.828125 193.203125 C 182.644531 193.246094 183.433594 193.265625 184.203125 193.265625 C 194.304688 193.269531 200.050781 189.5625 203.242188 185.839844 C 206.4375 182.113281 207.085938 178.402344 207.089844 178.375 L 206.84375 178.332031 L 206.902344 178.574219 C 211.578125 177.472656 214.449219 175.394531 216.136719 172.980469 C 217.824219 170.566406 218.324219 167.84375 218.324219 165.457031 C 218.320312 161.925781 217.230469 159.125 217.222656 159.109375 L 216.992188 159.199219 L 217.125 159.410156 C 219.472656 157.898438 220.996094 156.246094 221.933594 154.578125 C 222.871094 152.90625 223.214844 151.222656 223.214844 149.664062 C 223.210938 145.402344 220.6875 142.0625 220.675781 142.039062 C 220.59375 141.929688 220.433594 141.90625 220.324219 141.992188 C 220.210938 142.074219 220.191406 142.230469 220.273438 142.339844 "/>
<path style=" stroke:none;fill-rule:nonzero;fill:rgb(76.469421%,47.839355%,27.839661%);fill-opacity:1;" d="M 210.914062 139.847656 C 210.914062 139.847656 215.808594 168.484375 186.414062 178.332031 L 170.316406 153.699219 L 205.796875 138.4375 L 210.914062 139.847656 "/>
<path style=" stroke:none;fill-rule:nonzero;fill:rgb(12.939453%,11.369324%,11.369324%);fill-opacity:1;" d="M 207.726562 123.109375 L 207.75 123.144531 C 207.871094 123.3125 208.425781 124.132812 208.953125 125.238281 C 209.476562 126.347656 209.964844 127.746094 209.960938 129.058594 C 209.960938 129.722656 209.839844 130.363281 209.542969 130.941406 C 209.25 131.519531 208.78125 132.046875 208.0625 132.484375 C 207.664062 132.730469 206.972656 133.023438 206.371094 133.453125 C 206.066406 133.667969 205.785156 133.917969 205.574219 134.226562 C 205.359375 134.539062 205.222656 134.910156 205.222656 135.332031 C 205.226562 136.054688 205.605469 136.882812 206.515625 137.898438 C 207.089844 138.535156 208.09375 139.589844 208.945312 140.773438 C 209.796875 141.953125 210.488281 143.273438 210.484375 144.378906 C 210.484375 144.859375 210.363281 145.296875 210.078125 145.699219 C 209.789062 146.097656 209.328125 146.472656 208.628906 146.785156 C 208.226562 146.964844 207.722656 147.050781 207.179688 147.050781 C 206.21875 147.050781 205.148438 146.773438 204.339844 146.304688 C 203.9375 146.074219 203.601562 145.796875 203.371094 145.496094 C 203.140625 145.195312 203.015625 144.875 203.015625 144.535156 C 203.015625 144.378906 203.042969 144.214844 203.101562 144.046875 C 203.15625 143.886719 203.238281 143.785156 203.339844 143.71875 C 203.445312 143.648438 203.578125 143.609375 203.746094 143.609375 C 204.246094 143.601562 205.023438 144.007812 205.648438 144.835938 C 206.277344 145.664062 206.769531 146.902344 206.769531 148.527344 C 206.769531 149.320312 206.652344 150.207031 206.375 151.1875 C 206.082031 152.210938 205.292969 153.042969 204.261719 153.617188 C 203.238281 154.191406 201.984375 154.503906 200.820312 154.503906 C 200.683594 154.503906 200.570312 154.613281 200.570312 154.753906 C 200.570312 154.890625 200.683594 155.003906 200.820312 155.003906 C 202.070312 155 203.398438 154.675781 204.507812 154.054688 C 205.617188 153.433594 206.515625 152.515625 206.855469 151.324219 C 207.144531 150.304688 207.269531 149.367188 207.269531 148.527344 C 207.269531 146.800781 206.746094 145.453125 206.046875 144.535156 C 205.347656 143.617188 204.484375 143.113281 203.746094 143.109375 C 203.496094 143.105469 203.261719 143.167969 203.0625 143.300781 C 202.863281 143.429688 202.710938 143.632812 202.628906 143.882812 C 202.550781 144.101562 202.515625 144.324219 202.515625 144.535156 C 202.515625 145.003906 202.6875 145.433594 202.972656 145.800781 C 203.398438 146.351562 204.058594 146.785156 204.804688 147.085938 C 205.550781 147.382812 206.390625 147.550781 207.179688 147.550781 C 207.773438 147.550781 208.34375 147.457031 208.832031 147.242188 C 209.59375 146.902344 210.136719 146.480469 210.484375 145.988281 C 210.835938 145.496094 210.984375 144.941406 210.984375 144.378906 C 210.980469 143.074219 210.226562 141.703125 209.351562 140.480469 C 208.472656 139.261719 207.457031 138.195312 206.890625 137.566406 C 206.019531 136.597656 205.722656 135.867188 205.726562 135.332031 C 205.726562 135.015625 205.824219 134.753906 205.988281 134.511719 C 206.234375 134.148438 206.648438 133.84375 207.085938 133.585938 C 207.527344 133.328125 207.984375 133.121094 208.324219 132.914062 C 209.113281 132.429688 209.65625 131.832031 209.992188 131.167969 C 210.328125 130.503906 210.460938 129.78125 210.460938 129.058594 C 210.460938 127.53125 209.875 125.980469 209.296875 124.800781 C 208.714844 123.625 208.140625 122.824219 208.132812 122.816406 C 208.050781 122.707031 207.894531 122.679688 207.78125 122.761719 C 207.671875 122.839844 207.644531 122.996094 207.726562 123.109375 "/>
<g clip-path="url(#clip12)" clip-rule="nonzero">
<path style=" stroke:none;fill-rule:nonzero;fill:rgb(76.469421%,47.839355%,27.839661%);fill-opacity:1;" d="M 137.945312 150.640625 C 127.472656 145.980469 110.25 168.554688 112.261719 179.867188 C 116.320312 202.632812 124.371094 227.230469 132.617188 239.648438 L 183.597656 239.648438 C 183.417969 210.359375 162.128906 161.40625 137.945312 150.640625 "/>
</g>
<g clip-path="url(#clip13)" clip-rule="nonzero">
<path style=" stroke:none;fill-rule:nonzero;fill:rgb(97.648621%,69.018555%,19.999695%);fill-opacity:1;" d="M 150.5625 125.746094 C 147.964844 125.109375 143.683594 124.125 140.351562 123.339844 C 127.804688 120.378906 110.785156 125.890625 109.648438 149 C 109.222656 157.691406 110.25 168.554688 112.265625 179.867188 L 179.472656 193.421875 L 150.5625 125.746094 "/>
</g>
<path style=" stroke:none;fill-rule:nonzero;fill:rgb(12.939453%,11.369324%,11.369324%);fill-opacity:1;" d="M 147.394531 128.792969 C 147.394531 128.792969 124.75 97.125 157.472656 80.492188 L 147.394531 128.792969 "/>
<path style=" stroke:none;fill-rule:nonzero;fill:rgb(12.939453%,11.369324%,11.369324%);fill-opacity:1;" d="M 147.585938 128.894531 C 147.585938 128.894531 135.652344 125.707031 140.84375 114.183594 C 140.84375 114.183594 133.777344 103.195312 141.722656 95.894531 C 141.722656 95.894531 141.398438 84.265625 154.421875 82.476562 "/>
<g clip-path="url(#clip14)" clip-rule="nonzero">
<path style=" stroke:none;fill-rule:nonzero;fill:rgb(76.469421%,47.839355%,27.839661%);fill-opacity:1;" d="M 307.304688 219.59375 C 307.304688 219.59375 331.328125 219.734375 343.214844 223.914062 C 347.710938 225.496094 354.992188 230.742188 353.9375 239.671875 L 311.140625 239.671875 L 307.304688 219.59375 "/>
</g>
<g clip-path="url(#clip15)" clip-rule="nonzero">
<path style=" stroke:none;fill-rule:nonzero;fill:rgb(12.939453%,11.369324%,11.369324%);fill-opacity:1;" d="M 350.328125 239.628906 C 350.324219 239.605469 349.722656 236.210938 347.203125 232.660156 C 344.6875 229.113281 340.222656 225.417969 332.578125 224.851562 C 332.4375 224.84375 332.320312 224.945312 332.308594 225.082031 C 332.296875 225.222656 332.402344 225.34375 332.539062 225.355469 C 340.035156 225.910156 344.332031 229.496094 346.792969 232.953125 C 348.023438 234.679688 348.785156 236.375 349.238281 237.636719 C 349.464844 238.265625 349.613281 238.789062 349.707031 239.152344 C 349.753906 239.335938 349.789062 239.476562 349.808594 239.570312 C 349.820312 239.621094 349.824219 239.65625 349.832031 239.679688 L 349.835938 239.714844 C 349.859375 239.851562 349.992188 239.941406 350.125 239.917969 C 350.261719 239.890625 350.351562 239.761719 350.328125 239.628906 "/>
</g>
<g clip-path="url(#clip16)" clip-rule="nonzero">
<path style=" stroke:none;fill-rule:nonzero;fill:rgb(12.939453%,11.369324%,11.369324%);fill-opacity:1;" d="M 341.078125 239.632812 C 341.074219 239.605469 340.761719 237.507812 338.761719 235.125 C 336.761719 232.742188 333.066406 230.082031 326.363281 228.917969 C 326.226562 228.894531 326.09375 228.988281 326.070312 229.121094 C 326.046875 229.257812 326.140625 229.386719 326.277344 229.410156 C 332.886719 230.5625 336.453125 233.15625 338.378906 235.445312 C 339.339844 236.589844 339.890625 237.664062 340.203125 238.445312 C 340.359375 238.839844 340.453125 239.15625 340.511719 239.375 C 340.539062 239.484375 340.554688 239.570312 340.566406 239.625 L 340.578125 239.6875 L 340.582031 239.707031 C 340.601562 239.84375 340.726562 239.9375 340.863281 239.917969 C 341.003906 239.898438 341.097656 239.769531 341.078125 239.632812 "/>
</g>
<path style=" stroke:none;fill-rule:nonzero;fill:rgb(12.939453%,11.369324%,11.369324%);fill-opacity:1;" d="M 352.234375 231.109375 C 352.21875 231.113281 351.625 231.25 351.007812 231.640625 C 350.699219 231.835938 350.382812 232.09375 350.144531 232.441406 C 349.902344 232.789062 349.738281 233.222656 349.742188 233.742188 C 349.742188 233.972656 349.773438 234.222656 349.839844 234.484375 L 350.082031 234.417969 L 349.839844 234.480469 C 349.84375 234.496094 350.027344 235.242188 350.546875 236.011719 C 350.8125 236.394531 351.15625 236.78125 351.613281 237.078125 C 352.070312 237.375 352.640625 237.570312 353.320312 237.570312 C 353.554688 237.570312 353.804688 237.546875 354.070312 237.496094 C 354.207031 237.46875 354.296875 237.339844 354.269531 237.199219 C 354.242188 237.066406 354.113281 236.976562 353.976562 237.003906 C 353.738281 237.050781 353.523438 237.070312 353.320312 237.070312 C 352.738281 237.070312 352.273438 236.90625 351.886719 236.65625 C 351.308594 236.285156 350.914062 235.710938 350.667969 235.222656 C 350.542969 234.980469 350.457031 234.761719 350.402344 234.605469 C 350.375 234.527344 350.355469 234.460938 350.34375 234.421875 L 350.328125 234.371094 L 350.324219 234.359375 L 350.324219 234.355469 C 350.265625 234.128906 350.242188 233.925781 350.242188 233.742188 C 350.242188 233.328125 350.363281 233.003906 350.554688 232.726562 C 350.839844 232.3125 351.289062 232.023438 351.671875 231.84375 C 351.859375 231.753906 352.035156 231.691406 352.15625 231.652344 C 352.21875 231.632812 352.265625 231.617188 352.300781 231.609375 L 352.335938 231.601562 L 352.347656 231.597656 C 352.484375 231.566406 352.566406 231.433594 352.539062 231.296875 C 352.507812 231.160156 352.371094 231.078125 352.234375 231.109375 "/>
<path style=" stroke:none;fill-rule:nonzero;fill:rgb(12.939453%,11.369324%,11.369324%);fill-opacity:1;" d="M 346.398438 231.792969 C 346.382812 231.792969 345.539062 231.878906 344.671875 232.269531 C 344.238281 232.464844 343.796875 232.742188 343.453125 233.132812 C 343.113281 233.523438 342.878906 234.042969 342.878906 234.683594 C 342.878906 234.933594 342.914062 235.203125 342.992188 235.492188 L 342.996094 235.511719 C 343.003906 235.53125 343.242188 236.214844 343.871094 236.90625 C 344.496094 237.601562 345.53125 238.300781 347.070312 238.296875 C 347.789062 238.296875 348.617188 238.144531 349.5625 237.78125 C 349.691406 237.730469 349.757812 237.585938 349.703125 237.457031 C 349.65625 237.328125 349.511719 237.265625 349.382812 237.316406 C 348.484375 237.660156 347.71875 237.796875 347.070312 237.796875 C 345.6875 237.796875 344.804688 237.1875 344.242188 236.570312 C 343.960938 236.261719 343.765625 235.953125 343.644531 235.722656 C 343.578125 235.605469 343.535156 235.507812 343.507812 235.441406 L 343.476562 235.367188 L 343.46875 235.347656 L 343.234375 235.429688 L 343.472656 235.363281 C 343.40625 235.113281 343.378906 234.886719 343.378906 234.683594 C 343.378906 234.164062 343.558594 233.78125 343.832031 233.460938 C 344.242188 232.984375 344.898438 232.679688 345.457031 232.507812 C 345.734375 232.421875 345.984375 232.367188 346.164062 232.332031 C 346.253906 232.316406 346.328125 232.304688 346.375 232.296875 C 346.425781 232.289062 346.449219 232.289062 346.449219 232.289062 C 346.585938 232.273438 346.683594 232.152344 346.671875 232.015625 C 346.65625 231.875 346.535156 231.777344 346.398438 231.792969 "/>
<path style=" stroke:none;fill-rule:nonzero;fill:rgb(12.939453%,11.369324%,11.369324%);fill-opacity:1;" d="M 336.753906 233.28125 C 336.742188 233.285156 335.917969 233.40625 335.070312 233.816406 C 334.648438 234.019531 334.214844 234.300781 333.882812 234.6875 C 333.546875 235.074219 333.316406 235.574219 333.320312 236.183594 C 333.320312 236.242188 333.320312 236.300781 333.324219 236.359375 L 333.332031 236.398438 C 333.335938 236.429688 333.484375 237.042969 334.132812 237.65625 C 334.78125 238.269531 335.929688 238.859375 337.855469 238.855469 C 338.605469 238.855469 339.46875 238.769531 340.472656 238.5625 C 340.605469 238.535156 340.691406 238.402344 340.664062 238.269531 C 340.636719 238.132812 340.503906 238.046875 340.371094 238.074219 C 339.394531 238.273438 338.566406 238.355469 337.855469 238.355469 C 336.027344 238.351562 335.03125 237.808594 334.476562 237.292969 C 334.203125 237.03125 334.035156 236.773438 333.9375 236.582031 C 333.890625 236.488281 333.859375 236.410156 333.839844 236.355469 L 333.816406 236.285156 L 333.574219 236.339844 L 333.824219 236.324219 C 333.820312 236.277344 333.820312 236.230469 333.820312 236.183594 C 333.820312 235.703125 333.992188 235.328125 334.261719 235.015625 C 334.667969 234.542969 335.308594 234.222656 335.855469 234.03125 C 336.128906 233.933594 336.371094 233.871094 336.546875 233.832031 C 336.640625 233.8125 336.710938 233.796875 336.757812 233.789062 C 336.804688 233.777344 336.828125 233.777344 336.828125 233.777344 C 336.964844 233.753906 337.058594 233.628906 337.039062 233.492188 C 337.019531 233.355469 336.890625 233.261719 336.753906 233.28125 "/>
<g clip-path="url(#clip17)" clip-rule="nonzero">
<path style=" stroke:none;fill-rule:nonzero;fill:rgb(6.669617%,7.449341%,25.099182%);fill-opacity:1;" d="M 198.429688 239.648438 L 224.898438 163.621094 L 325.269531 163.621094 L 329.109375 166.128906 L 304.289062 239.648438 L 198.429688 239.648438 "/>
</g>
<g clip-path="url(#clip18)" clip-rule="nonzero">
<path style=" stroke:none;fill-rule:nonzero;fill:rgb(12.939453%,11.369324%,11.369324%);fill-opacity:1;" d="M 203.195312 239.730469 L 227.683594 166.335938 L 329.109375 166.382812 C 329.246094 166.382812 329.359375 166.269531 329.359375 166.128906 C 329.359375 165.992188 329.246094 165.878906 329.109375 165.878906 L 227.5 165.832031 C 227.394531 165.832031 227.296875 165.902344 227.261719 166.003906 L 202.71875 239.570312 C 202.675781 239.703125 202.746094 239.84375 202.878906 239.886719 C 203.007812 239.929688 203.152344 239.859375 203.195312 239.730469 "/>
</g>
<g clip-path="url(#clip19)" clip-rule="nonzero">
<path style=" stroke:none;fill-rule:nonzero;fill:rgb(22.749329%,57.649231%,89.7995%);fill-opacity:1;" d="M 212.28125 211.703125 L 232.847656 239.648438 L 338.066406 239.648438 L 313.386719 211.703125 L 212.28125 211.703125 "/>
</g>
<path style=" stroke:none;fill-rule:nonzero;fill:rgb(76.469421%,47.839355%,27.839661%);fill-opacity:1;" d="M 178.414062 82.558594 C 193.277344 81.65625 208.992188 88.039062 208.726562 112.351562 C 208.65625 118.914062 206.890625 131.96875 205.796875 138.4375 C 204.328125 147.082031 198.429688 162.285156 177.132812 157.292969 L 148.09375 122.816406 C 148.09375 122.816406 147.933594 84.410156 178.414062 82.558594 "/>
<path style=" stroke:none;fill-rule:nonzero;fill:rgb(12.939453%,11.369324%,11.369324%);fill-opacity:1;" d="M 191.722656 124.046875 L 190.570312 136.179688 C 190.558594 136.316406 190.660156 136.4375 190.800781 136.453125 C 190.9375 136.464844 191.058594 136.363281 191.070312 136.226562 L 192.21875 124.09375 C 192.234375 123.957031 192.132812 123.835938 191.996094 123.820312 C 191.855469 123.808594 191.734375 123.910156 191.722656 124.046875 "/>
<path style=" stroke:none;fill-rule:nonzero;fill:rgb(12.939453%,11.369324%,11.369324%);fill-opacity:1;" d="M 179.292969 125.605469 C 179.066406 126.929688 179.601562 128.183594 180.484375 128.410156 C 181.367188 128.632812 182.269531 127.742188 182.496094 126.414062 C 182.722656 125.089844 182.1875 123.835938 181.304688 123.609375 C 180.417969 123.386719 179.519531 124.28125 179.292969 125.605469 "/>
<path style=" stroke:none;fill-rule:nonzero;fill:rgb(12.939453%,11.369324%,11.369324%);fill-opacity:1;" d="M 196.832031 128.386719 C 196.601562 129.707031 197.136719 130.964844 198.023438 131.1875 C 198.90625 131.414062 199.808594 130.519531 200.03125 129.195312 C 200.261719 127.871094 199.726562 126.617188 198.839844 126.390625 C 197.957031 126.167969 197.054688 127.0625 196.832031 128.386719 "/>
<path style=" stroke:none;fill-rule:nonzero;fill:rgb(12.939453%,11.369324%,11.369324%);fill-opacity:1;" d="M 177.472656 139.390625 C 177.476562 139.464844 177.480469 140.445312 178.054688 141.441406 C 178.34375 141.9375 178.78125 142.433594 179.425781 142.804688 C 180.070312 143.171875 180.917969 143.410156 182.019531 143.410156 C 182.320312 143.410156 182.640625 143.390625 182.984375 143.355469 C 183.121094 143.339844 183.21875 143.214844 183.203125 143.078125 C 183.191406 142.941406 183.066406 142.84375 182.929688 142.859375 C 182.605469 142.894531 182.300781 142.910156 182.019531 142.910156 C 180.988281 142.910156 180.234375 142.691406 179.671875 142.371094 C 178.835938 141.886719 178.414062 141.167969 178.195312 140.546875 C 177.976562 139.925781 177.972656 139.410156 177.972656 139.390625 C 177.972656 139.25 177.863281 139.140625 177.722656 139.140625 C 177.585938 139.140625 177.472656 139.25 177.472656 139.390625 "/>
<path style=" stroke:none;fill-rule:nonzero;fill:rgb(76.469421%,47.839355%,27.839661%);fill-opacity:1;" d="M 148.09375 122.816406 C 148.09375 122.816406 146.050781 136.214844 148.9375 141.664062 C 152.703125 148.785156 155.953125 151.304688 177.132812 157.292969 C 177.132812 157.292969 171.253906 120.058594 148.09375 122.816406 "/>
<g clip-path="url(#clip20)" clip-rule="nonzero">
<path style=" stroke:none;fill-rule:nonzero;fill:rgb(76.469421%,47.839355%,27.839661%);fill-opacity:1;" d="M 147.394531 132.699219 C 147.394531 132.699219 138.375 135.4375 141.527344 146.535156 C 142.691406 150.625 144.480469 154.617188 151.261719 160.507812 C 151.261719 160.507812 146.1875 176.261719 141.527344 188.042969 C 136.863281 199.824219 125.910156 223.660156 132.617188 239.648438 L 183.597656 239.648438 C 183.953125 225.390625 186.105469 191.753906 186.457031 177.492188 C 186.65625 169.273438 185.058594 157.179688 170.316406 153.699219 C 161.820312 151.695312 149.296875 147.171875 147.394531 132.699219 "/>
</g>
<path style=" stroke:none;fill-rule:nonzero;fill:rgb(12.939453%,11.369324%,11.369324%);fill-opacity:1;" d="M 177.957031 157.734375 C 179.714844 158.042969 181.46875 158.191406 183.179688 158.191406 C 190.929688 158.1875 197.863281 155.195312 201.121094 150.792969 C 204.058594 146.816406 205.429688 142.082031 206.042969 138.480469 C 206.066406 138.34375 205.972656 138.214844 205.835938 138.191406 C 205.699219 138.167969 205.570312 138.261719 205.546875 138.398438 C 204.945312 141.949219 203.585938 146.617188 200.71875 150.496094 C 197.605469 154.71875 190.800781 157.695312 183.179688 157.691406 C 181.496094 157.691406 179.773438 157.546875 178.042969 157.238281 C 177.90625 157.214844 177.777344 157.304688 177.753906 157.441406 C 177.730469 157.578125 177.820312 157.707031 177.957031 157.734375 "/>
<path style=" stroke:none;fill-rule:nonzero;fill:rgb(12.939453%,11.369324%,11.369324%);fill-opacity:1;" d="M 186.683594 178.339844 C 186.691406 178.050781 186.699219 177.773438 186.707031 177.5 C 186.722656 176.878906 186.734375 176.246094 186.734375 175.605469 C 186.730469 171.683594 186.332031 167.445312 184.078125 163.53125 C 181.824219 159.617188 177.71875 156.054688 170.402344 153.464844 C 166.28125 152.003906 161.050781 150.375 156.625 147.328125 C 152.203125 144.273438 148.585938 139.832031 147.640625 132.664062 C 147.625 132.527344 147.496094 132.429688 147.359375 132.449219 C 147.222656 132.46875 147.128906 132.59375 147.144531 132.730469 C 148.101562 140.039062 151.835938 144.636719 156.339844 147.738281 C 160.847656 150.84375 166.125 152.480469 170.234375 153.9375 C 177.476562 156.503906 181.453125 159.984375 183.644531 163.78125 C 185.832031 167.578125 186.234375 171.714844 186.234375 175.605469 C 186.234375 176.242188 186.222656 176.871094 186.203125 177.488281 C 186.199219 177.761719 186.191406 178.039062 186.183594 178.324219 C 186.179688 178.460938 186.289062 178.578125 186.425781 178.582031 C 186.566406 178.585938 186.679688 178.476562 186.683594 178.339844 "/>
<path style=" stroke:none;fill-rule:nonzero;fill:rgb(12.939453%,11.369324%,11.369324%);fill-opacity:1;" d="M 188.734375 75.734375 C 191.609375 72.203125 189.789062 66.675781 183.550781 64.230469 C 183.550781 64.230469 186.074219 46.4375 168.273438 53.824219 C 168.273438 53.824219 152.308594 48.632812 153.695312 64.890625 C 153.695312 64.890625 148.945312 68.523438 148.664062 72.957031 C 148.476562 75.9375 149.878906 80.652344 156.972656 82.125 C 170.324219 84.902344 183.621094 82.007812 188.734375 75.734375 "/>
<path style=" stroke:none;fill-rule:nonzero;fill:rgb(12.939453%,11.369324%,11.369324%);fill-opacity:1;" d="M 213.085938 97.390625 C 220.417969 115.636719 207.929688 122.964844 207.929688 122.964844 L 208.621094 112.007812 C 208.621094 112.007812 200.121094 110 199.253906 101.050781 C 199.253906 101.050781 191.972656 107.988281 183.597656 97.238281 C 183.597656 97.238281 182.433594 106.988281 170.316406 102.238281 C 170.316406 102.238281 172.011719 114.183594 160 118.1875 L 148.472656 119.820312 C 148.472656 119.820312 128.894531 87.925781 168.90625 75.621094 C 180.675781 71.996094 202.089844 70.03125 213.085938 97.390625 "/>
<path style=" stroke:none;fill-rule:nonzero;fill:rgb(22.749329%,57.649231%,89.7995%);fill-opacity:1;" d="M 214.367188 101.050781 C 214.367188 101.050781 211.523438 91.578125 201.996094 86.53125 C 197.96875 84.394531 188.59375 79.894531 185.632812 77.226562 C 183.683594 75.46875 182.804688 70.15625 196 75.933594 C 203.128906 79.054688 217.628906 87.765625 214.367188 101.050781 "/>
<path style=" stroke:none;fill-rule:nonzero;fill:rgb(22.749329%,57.649231%,89.7995%);fill-opacity:1;" d="M 179.613281 78.792969 C 175.691406 80.667969 174.726562 80.160156 164.722656 87.765625 C 157.691406 93.109375 149.203125 106.191406 152.785156 120.992188 L 146.9375 121.523438 C 146.9375 121.523438 136.503906 72.960938 177.429688 72.953125 C 181.222656 72.953125 186.851562 75.328125 179.613281 78.792969 "/>
<path style=" stroke:none;fill-rule:nonzero;fill:rgb(22.749329%,57.649231%,89.7995%);fill-opacity:1;" d="M 183.515625 71.371094 C 185.457031 71.519531 191 72.816406 188.632812 77.234375 C 187.480469 79.394531 184.675781 81.871094 179.058594 79.316406 C 176.988281 78.367188 172.789062 70.546875 183.515625 71.371094 "/>
<path style=" stroke:none;fill-rule:nonzero;fill:rgb(22.749329%,57.649231%,89.7995%);fill-opacity:1;" d="M 182.664062 71.898438 C 182.664062 71.898438 182.007812 61.644531 176.757812 58.617188 C 174.691406 57.429688 168.035156 58.824219 170.054688 65.386719 C 171.085938 68.746094 175.070312 73.613281 179.300781 75.992188 L 182.664062 71.898438 "/>
<path style=" stroke:none;fill-rule:nonzero;fill:rgb(22.749329%,57.649231%,89.7995%);fill-opacity:1;" d="M 183.515625 71.371094 C 183.515625 71.371094 188.511719 55.6875 197.085938 62.566406 C 200.398438 65.222656 199.851562 71.53125 186.519531 75.871094 L 183.515625 71.371094 "/>
<path style=" stroke:none;fill-rule:nonzero;fill:rgb(12.939453%,11.369324%,11.369324%);fill-opacity:1;" d="M 160.605469 117.886719 L 160.628906 117.902344 C 160.746094 117.992188 161.320312 118.425781 161.855469 119.117188 C 162.390625 119.808594 162.882812 120.75 162.882812 121.851562 C 162.882812 122.652344 162.628906 123.542969 161.925781 124.527344 C 161.695312 124.847656 161.425781 125.203125 161.214844 125.609375 C 161 126.011719 160.835938 126.46875 160.835938 126.976562 C 160.835938 127.609375 161.09375 128.304688 161.738281 129.039062 C 162.378906 129.78125 163.402344 130.578125 164.980469 131.46875 C 165.3125 131.652344 165.789062 132 166.171875 132.429688 C 166.558594 132.863281 166.835938 133.378906 166.832031 133.890625 C 166.832031 134.339844 166.640625 134.824219 166.046875 135.347656 C 165.460938 135.871094 164.46875 136.417969 162.929688 136.925781 C 162.535156 137.058594 161.984375 137.230469 161.507812 137.558594 C 161.273438 137.71875 161.054688 137.921875 160.894531 138.179688 C 160.730469 138.4375 160.632812 138.753906 160.632812 139.113281 C 160.632812 139.582031 160.796875 140.125 161.164062 140.761719 C 161.53125 141.398438 162.109375 142.136719 162.960938 143.003906 C 163.300781 143.347656 163.734375 143.753906 164.074219 144.210938 C 164.414062 144.664062 164.65625 145.164062 164.65625 145.699219 C 164.65625 146.214844 164.4375 146.808594 163.769531 147.496094 C 163.105469 148.179688 161.996094 148.945312 160.265625 149.777344 C 160.140625 149.835938 160.085938 149.984375 160.148438 150.109375 C 160.207031 150.234375 160.355469 150.285156 160.480469 150.226562 C 162.242188 149.382812 163.398438 148.59375 164.128906 147.84375 C 164.855469 147.097656 165.15625 146.367188 165.15625 145.699219 C 165.15625 145.007812 164.847656 144.410156 164.476562 143.910156 C 164.097656 143.40625 163.648438 142.988281 163.316406 142.652344 C 162.488281 141.804688 161.9375 141.097656 161.597656 140.511719 C 161.257812 139.921875 161.132812 139.464844 161.132812 139.113281 C 161.136719 138.839844 161.203125 138.628906 161.316406 138.445312 C 161.488281 138.167969 161.777344 137.953125 162.105469 137.785156 C 162.433594 137.617188 162.792969 137.5 163.085938 137.402344 C 164.664062 136.878906 165.710938 136.316406 166.382812 135.722656 C 167.050781 135.136719 167.335938 134.5 167.335938 133.890625 C 167.332031 133.195312 166.976562 132.585938 166.546875 132.101562 C 166.117188 131.613281 165.605469 131.242188 165.226562 131.03125 C 163.679688 130.160156 162.699219 129.386719 162.113281 128.714844 C 161.527344 128.035156 161.339844 127.472656 161.339844 126.976562 C 161.339844 126.574219 161.464844 126.203125 161.65625 125.84375 C 161.847656 125.484375 162.097656 125.144531 162.332031 124.816406 C 163.089844 123.765625 163.382812 122.757812 163.382812 121.851562 C 163.382812 120.511719 162.753906 119.421875 162.136719 118.664062 C 161.515625 117.910156 160.90625 117.484375 160.894531 117.476562 C 160.78125 117.398438 160.625 117.425781 160.542969 117.539062 C 160.464844 117.652344 160.492188 117.808594 160.605469 117.886719 "/>
<path style=" stroke:none;fill-rule:nonzero;fill:rgb(12.939453%,11.369324%,11.369324%);fill-opacity:1;" d="M 214.367188 101.050781 C 214.367188 101.050781 220.148438 104.886719 215.394531 111.460938 C 215.394531 111.460938 218.726562 122.484375 207.929688 122.964844 L 214.367188 101.050781 "/>
<path style=" stroke:none;fill-rule:nonzero;fill:rgb(76.469421%,47.839355%,27.839661%);fill-opacity:1;" d="M 160 118.1875 C 160 118.1875 158.847656 105.292969 149.296875 108.5 C 145.890625 109.644531 141.046875 115.648438 148.09375 122.816406 L 160 118.1875 "/>
<path style=" stroke:none;fill-rule:nonzero;fill:rgb(12.939453%,11.369324%,11.369324%);fill-opacity:1;" d="M 151.992188 108.03125 L 154.121094 120.417969 C 154.144531 120.554688 154.273438 120.644531 154.410156 120.621094 C 154.546875 120.597656 154.636719 120.46875 154.613281 120.332031 L 152.484375 107.945312 C 152.464844 107.8125 152.332031 107.71875 152.199219 107.742188 C 152.058594 107.765625 151.96875 107.894531 151.992188 108.03125 "/>
<path style=" stroke:none;fill-rule:nonzero;fill:rgb(12.939453%,11.369324%,11.369324%);fill-opacity:1;" d="M 142.113281 185.851562 L 132.382812 212.925781 C 132.335938 213.054688 132.402344 213.199219 132.53125 213.246094 C 132.664062 213.292969 132.804688 213.226562 132.851562 213.09375 L 142.585938 186.019531 C 142.632812 185.890625 142.5625 185.746094 142.433594 185.699219 C 142.300781 185.652344 142.160156 185.71875 142.113281 185.851562 "/>
<path style=" stroke:none;fill-rule:nonzero;fill:rgb(12.939453%,11.369324%,11.369324%);fill-opacity:1;" d="M 110.625 170.613281 L 145.4375 177.695312 C 145.574219 177.722656 145.707031 177.632812 145.734375 177.5 C 145.761719 177.363281 145.671875 177.230469 145.539062 177.203125 L 110.722656 170.125 C 110.589844 170.097656 110.457031 170.183594 110.429688 170.320312 C 110.402344 170.453125 110.488281 170.585938 110.625 170.613281 "/>
<path style=" stroke:none;fill-rule:nonzero;fill:rgb(12.939453%,11.369324%,11.369324%);fill-opacity:1;" d="M 187.464844 72.453125 L 191.761719 67.773438 C 191.855469 67.671875 191.847656 67.515625 191.746094 67.421875 C 191.644531 67.328125 191.484375 67.335938 191.390625 67.4375 L 187.09375 72.113281 C 187 72.214844 187.007812 72.375 187.109375 72.46875 C 187.210938 72.5625 187.371094 72.554688 187.464844 72.453125 "/>
<path style=" stroke:none;fill-rule:nonzero;fill:rgb(12.939453%,11.369324%,11.369324%);fill-opacity:1;" d="M 179.359375 71.558594 L 176.875 66.082031 C 176.816406 65.957031 176.667969 65.902344 176.539062 65.957031 C 176.414062 66.015625 176.359375 66.164062 176.417969 66.289062 L 178.902344 71.761719 C 178.960938 71.890625 179.109375 71.945312 179.238281 71.886719 C 179.363281 71.832031 179.417969 71.683594 179.359375 71.558594 "/>
<path style=" stroke:none;fill-rule:nonzero;fill:rgb(12.939453%,11.369324%,11.369324%);fill-opacity:1;" d="M 176.597656 75.625 C 176.589844 75.625 173.101562 76.332031 169.597656 77.527344 C 169.464844 77.570312 169.394531 77.710938 169.441406 77.84375 C 169.484375 77.972656 169.628906 78.042969 169.757812 78 C 171.492188 77.410156 173.226562 76.9375 174.527344 76.613281 C 175.179688 76.453125 175.722656 76.328125 176.101562 76.242188 C 176.480469 76.15625 176.695312 76.113281 176.695312 76.113281 C 176.832031 76.085938 176.917969 75.953125 176.890625 75.820312 C 176.863281 75.683594 176.730469 75.597656 176.597656 75.625 "/>
<path style=" stroke:none;fill-rule:nonzero;fill:rgb(12.939453%,11.369324%,11.369324%);fill-opacity:1;" d="M 189.03125 76.226562 C 189.03125 76.226562 189.242188 76.304688 189.601562 76.445312 C 190.675781 76.867188 193.050781 77.84375 194.777344 78.804688 C 194.898438 78.871094 195.054688 78.828125 195.121094 78.707031 C 195.1875 78.585938 195.144531 78.433594 195.023438 78.367188 C 192.664062 77.054688 189.210938 75.757812 189.207031 75.757812 C 189.074219 75.707031 188.933594 75.773438 188.882812 75.902344 C 188.835938 76.03125 188.898438 76.175781 189.03125 76.226562 "/>
<path style=" stroke:none;fill-rule:nonzero;fill:rgb(12.939453%,11.369324%,11.369324%);fill-opacity:1;" d="M 183.515625 71.371094 L 183.496094 71.621094 C 184.273438 71.679688 185.679688 71.9375 186.855469 72.511719 C 187.449219 72.800781 187.980469 73.167969 188.355469 73.613281 C 188.730469 74.066406 188.960938 74.589844 188.960938 75.234375 C 188.960938 75.765625 188.800781 76.390625 188.414062 77.117188 C 188.027344 77.84375 187.445312 78.601562 186.628906 79.179688 C 185.816406 79.753906 184.769531 80.152344 183.417969 80.152344 C 182.246094 80.152344 180.835938 79.847656 179.164062 79.085938 C 178.734375 78.894531 178.09375 78.265625 177.605469 77.453125 C 177.105469 76.640625 176.738281 75.652344 176.738281 74.738281 C 176.742188 73.898438 177.03125 73.140625 177.820312 72.550781 C 178.609375 71.964844 179.941406 71.558594 182.023438 71.558594 C 182.476562 71.558594 182.96875 71.578125 183.496094 71.621094 L 183.535156 71.121094 C 182.996094 71.082031 182.492188 71.0625 182.023438 71.0625 C 179.878906 71.0625 178.441406 71.472656 177.523438 72.148438 C 176.601562 72.828125 176.234375 73.78125 176.238281 74.738281 C 176.238281 75.785156 176.644531 76.84375 177.175781 77.714844 C 177.714844 78.585938 178.363281 79.265625 178.957031 79.542969 C 180.679688 80.328125 182.15625 80.652344 183.417969 80.652344 C 184.867188 80.652344 186.027344 80.21875 186.917969 79.585938 C 187.8125 78.957031 188.4375 78.132812 188.855469 77.355469 C 189.273438 76.570312 189.460938 75.867188 189.460938 75.234375 C 189.460938 74.464844 189.179688 73.8125 188.738281 73.292969 C 188.078125 72.511719 187.085938 72 186.105469 71.664062 C 185.128906 71.328125 184.160156 71.171875 183.535156 71.121094 L 183.515625 71.371094 "/>
<path style=" stroke:none;fill-rule:nonzero;fill:rgb(12.939453%,11.369324%,11.369324%);fill-opacity:1;" d="M 112.265625 179.867188 L 140.1875 191.945312 L 142.347656 185.9375 Z M 112.265625 179.867188 "/>
<g clip-path="url(#clip21)" clip-rule="nonzero">
<path style=" stroke:none;fill-rule:nonzero;fill:rgb(12.939453%,11.369324%,11.369324%);fill-opacity:1;" d="M 359.847656 239.398438 L 120.796875 239.398438 C 120.65625 239.398438 120.542969 239.511719 120.542969 239.648438 C 120.542969 239.789062 120.65625 239.898438 120.796875 239.898438 L 359.847656 239.898438 C 359.988281 239.898438 360.097656 239.789062 360.097656 239.648438 C 360.097656 239.511719 359.988281 239.398438 359.847656 239.398438 "/>
</g>
<path style=" stroke:none;fill-rule:nonzero;fill:rgb(12.939453%,11.369324%,11.369324%);fill-opacity:1;" d="M 160.371094 118.105469 C 160.398438 118.105469 163.265625 118.105469 166.152344 116.082031 C 169.042969 114.0625 171.902344 110.003906 171.894531 102.039062 C 171.894531 101.902344 171.785156 101.789062 171.644531 101.789062 C 171.507812 101.789062 171.394531 101.902344 171.394531 102.039062 C 171.390625 109.890625 168.613281 113.738281 165.863281 115.671875 C 164.488281 116.640625 163.109375 117.121094 162.078125 117.363281 C 161.558594 117.484375 161.132812 117.542969 160.832031 117.574219 C 160.679688 117.589844 160.566406 117.597656 160.488281 117.597656 L 160.398438 117.601562 L 160.371094 117.601562 C 160.234375 117.601562 160.121094 117.714844 160.121094 117.855469 C 160.121094 117.992188 160.234375 118.105469 160.371094 118.105469 "/>
<path style=" stroke:none;fill-rule:nonzero;fill:rgb(12.939453%,11.369324%,11.369324%);fill-opacity:1;" d="M 182.46875 98.414062 C 182.476562 98.425781 183.546875 99.773438 185.339844 101.125 C 187.128906 102.480469 189.648438 103.847656 192.566406 103.847656 C 194.835938 103.851562 197.332031 103.011719 199.84375 100.722656 C 199.949219 100.628906 199.953125 100.472656 199.863281 100.371094 C 199.769531 100.269531 199.609375 100.261719 199.507812 100.355469 C 197.066406 102.566406 194.710938 103.347656 192.566406 103.347656 C 189.8125 103.351562 187.382812 102.046875 185.640625 100.726562 C 184.769531 100.070312 184.070312 99.410156 183.59375 98.917969 C 183.355469 98.671875 183.171875 98.46875 183.046875 98.324219 C 182.984375 98.253906 182.9375 98.195312 182.90625 98.160156 L 182.859375 98.101562 C 182.777344 97.992188 182.617188 97.976562 182.507812 98.058594 C 182.398438 98.148438 182.382812 98.304688 182.46875 98.414062 "/>
<path style=" stroke:none;fill-rule:nonzero;fill:rgb(12.939453%,11.369324%,11.369324%);fill-opacity:1;" d="M 213.933594 101.253906 L 213.964844 101.28125 C 214.140625 101.414062 214.96875 102.082031 215.75 103.175781 C 216.527344 104.269531 217.253906 105.785156 217.253906 107.625 C 217.253906 109.511719 216.496094 111.769531 214.179688 114.316406 C 214.085938 114.417969 214.09375 114.578125 214.199219 114.671875 C 214.300781 114.765625 214.460938 114.753906 214.550781 114.652344 C 216.929688 112.039062 217.757812 109.652344 217.757812 107.625 C 217.757812 105.515625 216.871094 103.820312 215.992188 102.660156 C 215.117188 101.5 214.242188 100.859375 214.230469 100.851562 C 214.117188 100.769531 213.960938 100.792969 213.878906 100.90625 C 213.796875 101.015625 213.820312 101.175781 213.933594 101.253906 "/>
<path style=" stroke:none;fill-rule:nonzero;fill:rgb(12.939453%,11.369324%,11.369324%);fill-opacity:1;" d="M 140.027344 112.183594 C 140.019531 112.203125 138.398438 115.289062 138.394531 118.929688 C 138.394531 120.816406 138.835938 122.859375 140.183594 124.671875 C 141.53125 126.488281 143.777344 128.058594 147.328125 129.03125 C 147.460938 129.070312 147.597656 128.992188 147.632812 128.859375 C 147.671875 128.722656 147.59375 128.585938 147.460938 128.550781 C 143.988281 127.597656 141.859375 126.085938 140.585938 124.375 C 139.316406 122.664062 138.894531 120.738281 138.894531 118.929688 C 138.894531 117.183594 139.289062 115.550781 139.683594 114.355469 C 139.882812 113.757812 140.082031 113.269531 140.230469 112.933594 C 140.300781 112.765625 140.363281 112.632812 140.40625 112.546875 L 140.472656 112.414062 C 140.535156 112.292969 140.488281 112.140625 140.367188 112.078125 C 140.242188 112.011719 140.09375 112.058594 140.027344 112.183594 "/>
<path style=" stroke:none;fill-rule:nonzero;fill:rgb(12.939453%,11.369324%,11.369324%);fill-opacity:1;" d="M 177.15625 52.898438 L 177.171875 52.898438 C 177.210938 52.894531 177.3125 52.890625 177.46875 52.890625 C 178.183594 52.886719 180.007812 53.019531 181.625 54.15625 C 183.238281 55.296875 184.695312 57.433594 184.703125 61.585938 C 184.703125 62.824219 184.570312 64.242188 184.269531 65.863281 L 184.761719 65.953125 C 185.066406 64.308594 185.203125 62.859375 185.203125 61.585938 C 185.207031 57.320312 183.667969 54.976562 181.914062 53.75 C 180.164062 52.519531 178.242188 52.390625 177.46875 52.386719 C 177.246094 52.386719 177.117188 52.398438 177.113281 52.398438 L 177.15625 52.898438 "/>
<path style=" stroke:none;fill-rule:nonzero;fill:rgb(12.939453%,11.369324%,11.369324%);fill-opacity:1;" d="M 154.882812 61.992188 C 154.871094 62 153.300781 63.070312 151.726562 64.953125 C 150.152344 66.828125 148.5625 69.523438 148.558594 72.777344 C 148.558594 73.363281 148.613281 73.96875 148.726562 74.589844 L 149.21875 74.5 C 149.109375 73.910156 149.0625 73.332031 149.0625 72.777344 C 149.058594 69.695312 150.578125 67.101562 152.109375 65.273438 C 152.875 64.359375 153.640625 63.640625 154.214844 63.152344 C 154.503906 62.90625 154.742188 62.71875 154.910156 62.59375 C 154.992188 62.53125 155.054688 62.484375 155.101562 62.453125 L 155.164062 62.40625 L 154.882812 61.992188 "/>
<path style=" stroke:none;fill-rule:nonzero;fill:rgb(12.939453%,11.369324%,11.369324%);fill-opacity:1;" d="M 185.707031 115.585938 C 185.257812 114.390625 184.199219 113.457031 182.847656 113.230469 C 182.640625 113.195312 182.4375 113.179688 182.234375 113.179688 C 181.109375 113.179688 180.066406 113.695312 179.378906 114.53125 C 179.289062 114.636719 179.304688 114.796875 179.410156 114.886719 C 179.519531 114.972656 179.675781 114.957031 179.765625 114.851562 C 180.363281 114.125 181.261719 113.679688 182.234375 113.679688 C 182.410156 113.679688 182.585938 113.695312 182.765625 113.726562 C 183.9375 113.917969 184.847656 114.722656 185.238281 115.761719 C 185.289062 115.890625 185.433594 115.957031 185.5625 115.90625 C 185.691406 115.859375 185.757812 115.714844 185.707031 115.585938 "/>
<path style=" stroke:none;fill-rule:nonzero;fill:rgb(12.939453%,11.369324%,11.369324%);fill-opacity:1;" d="M 203.472656 118.714844 C 203.023438 117.519531 201.964844 116.585938 200.613281 116.363281 C 200.40625 116.328125 200.203125 116.3125 200 116.3125 C 198.871094 116.3125 197.832031 116.824219 197.140625 117.660156 C 197.054688 117.765625 197.070312 117.925781 197.175781 118.015625 C 197.28125 118.101562 197.4375 118.085938 197.527344 117.980469 C 198.125 117.253906 199.027344 116.8125 200 116.8125 C 200.171875 116.8125 200.351562 116.824219 200.53125 116.855469 C 201.699219 117.050781 202.609375 117.855469 203.003906 118.890625 C 203.050781 119.019531 203.195312 119.085938 203.324219 119.035156 C 203.453125 118.988281 203.519531 118.84375 203.472656 118.714844 "/>
<g clip-path="url(#clip22)" clip-rule="nonzero">
<path style=" stroke:none;fill-rule:nonzero;fill:rgb(12.939453%,11.369324%,11.369324%);fill-opacity:1;" d="M 212.28125 211.703125 L 222.507812 239.625 L 232.847656 239.648438 Z M 212.28125 211.703125 "/>
</g>
</g>
</svg>
